G04 start of page 4 for group 2 idx 2 *
G04 Title: (unknown), outline *
G04 Creator: pcb 20110918 *
G04 CreationDate: Mon 25 May 2015 02:47:13 AM GMT UTC *
G04 For: railfan *
G04 Format: Gerber/RS-274X *
G04 PCB-Dimensions: 269500 307800 *
G04 PCB-Coordinate-Origin: lower left *
%MOIN*%
%FSLAX25Y25*%
%LNOUTLINE*%
%ADD60C,0.0080*%
%ADD59C,0.0100*%
G54D59*X3700Y0D02*X265800D01*
X0Y114500D02*X20000D01*
X0Y89500D02*X20000D01*
X269500Y114500D02*X249500D01*
X269500Y89500D02*X249500D01*
X178000Y94800D02*X98500D01*
X15100Y307800D02*X254400D01*
X98500Y167800D02*X178000D01*
Y94800D01*
X98500D02*Y167800D01*
X3703Y-10D02*G75*G02X56Y89502I1403197J102010D01*G01*
X56Y114498D02*G75*G02X15132Y307791I1406844J-12498D01*G01*
X265797Y-10D02*G75*G03X269444Y89502I-1403197J102010D01*G01*
X269444Y114498D02*G75*G03X254368Y307791I-1406844J-12498D01*G01*
X20000Y89500D02*G75*G03X20000Y114500I0J12500D01*G01*
X249500Y89500D02*G75*G02X249500Y114500I0J12500D01*G01*
G54D60*X119000Y134300D02*X120000D01*
X119500D02*Y130300D01*
X119000D02*X120000D01*
X121700Y131800D02*Y130300D01*
Y131800D02*X122200Y132300D01*
X122700D01*
X123200Y131800D01*
Y130300D01*
X121200Y132300D02*X121700Y131800D01*
X124900Y134300D02*Y130800D01*
X125400Y130300D01*
X124400Y132800D02*X125400D01*
X126900Y130300D02*X128400D01*
X126400Y130800D02*X126900Y130300D01*
X126400Y131800D02*Y130800D01*
Y131800D02*X126900Y132300D01*
X127900D01*
X128400Y131800D01*
X126400Y131300D02*X128400D01*
Y131800D02*Y131300D01*
X130100Y131800D02*Y130300D01*
Y131800D02*X130600Y132300D01*
X131600D01*
X129600D02*X130100Y131800D01*
X132800Y133300D02*Y133200D01*
Y131800D02*Y130300D01*
X133800Y131800D02*Y130800D01*
Y131800D02*X134300Y132300D01*
X135300D01*
X135800Y131800D01*
Y130800D01*
X135300Y130300D02*X135800Y130800D01*
X134300Y130300D02*X135300D01*
X133800Y130800D02*X134300Y130300D01*
X137500Y131800D02*Y130300D01*
Y131800D02*X138000Y132300D01*
X139000D01*
X137000D02*X137500Y131800D01*
X142700Y130300D02*X144000D01*
X142000Y131000D02*X142700Y130300D01*
X142000Y133600D02*Y131000D01*
Y133600D02*X142700Y134300D01*
X144000D01*
X145200Y132300D02*Y130800D01*
X145700Y130300D01*
X146700D01*
X147200Y130800D01*
Y132300D02*Y130800D01*
X148900Y134300D02*Y130800D01*
X149400Y130300D01*
X148400Y132800D02*X149400D01*
X150400Y131800D02*Y130800D01*
Y131800D02*X150900Y132300D01*
X151900D01*
X152400Y131800D01*
Y130800D01*
X151900Y130300D02*X152400Y130800D01*
X150900Y130300D02*X151900D01*
X150400Y130800D02*X150900Y130300D01*
X153600Y132300D02*Y130800D01*
X154100Y130300D01*
X155100D01*
X155600Y130800D01*
Y132300D02*Y130800D01*
X157300Y134300D02*Y130800D01*
X157800Y130300D01*
X156800Y132800D02*X157800D01*
M02*
