M48
INCH
T66C0.020
T65C0.075
T64C0.048
T63C0.043
T62C0.038
T61C0.129
%
T66
X005450Y015980
X007500Y015980
X005842Y013530
X005528Y011330
X006158Y011330
X009050Y012588
X009000Y013630
X009000Y014080
X009000Y014530
X008400Y011958
X008400Y019180
X008400Y020080
X009000Y014980
X009000Y015430
X005450Y016430
X007500Y016430
X005950Y008580
X006450Y008580
X004550Y010080
X008700Y012902
X008600Y009380
X008600Y009780
X008600Y008980
X009400Y012272
X009850Y009030
X010250Y009030
X010650Y009030
X003200Y012780
X002400Y011980
X003500Y012272
X009400Y020524
X009000Y018980
X009000Y019880
X007600Y019680
X007250Y019980
X006900Y019680
X006550Y019980
X007600Y021780
X011250Y022230
X011250Y021780
X011250Y021330
X011250Y020880
X014200Y026830
X013750Y026830
X013300Y026830
X012850Y026830
X006200Y019680
X003850Y018580
X004000Y019180
X005450Y025180
X003650Y023030
X003650Y023480
X009300Y005380
X008300Y005380
X007300Y005380
X017050Y004530
X017050Y005330
X017050Y004930
X018950Y005980
X019300Y005780
X019300Y006180
X023050Y006130
X019100Y017230
X019100Y018130
X019100Y018580
X020200Y017980
X021950Y011430
X022400Y011430
X023750Y013130
X025050Y012880
X019400Y018930
X019400Y019380
X019400Y019830
X019050Y020180
X021950Y009630
X021500Y011430
X017750Y017230
X017750Y017680
X017150Y017780
X016500Y017980
X016550Y020524
X015750Y018180
X014950Y018380
X014200Y018580
X013550Y018780
X013150Y019130
T62
X006100Y020780
X006100Y021780
X005100Y020780
X005100Y021780
X006100Y022780
X005100Y022780
T63
X012516Y003514
X012516Y001546
X014484Y003514
X014484Y001546
T64
X022000Y006280
X022000Y008280
T65
X020600Y027630
X020600Y025780
X020600Y023930
T61
X002260Y020040
X002035Y004290
X024690Y020040
X024915Y004290
M30
