G04 start of page 7 for group -4063 idx -4063 *
G04 Title: (unknown), componentmask *
G04 Creator: pcb 20110918 *
G04 CreationDate: Thu 09 Jul 2015 02:06:34 AM GMT UTC *
G04 For: petersen *
G04 Format: Gerber/RS-274X *
G04 PCB-Dimensions: 269500 307800 *
G04 PCB-Coordinate-Origin: lower left *
%MOIN*%
%FSLAX25Y25*%
%LNTOPMASK*%
%ADD86R,0.0410X0.0410*%
%ADD85R,0.0300X0.0300*%
%ADD84R,0.0257X0.0257*%
%ADD83R,0.0158X0.0158*%
%ADD82R,0.0760X0.0760*%
%ADD81R,0.0300X0.0300*%
%ADD80R,0.0290X0.0290*%
%ADD79R,0.0400X0.0400*%
%ADD78R,0.0217X0.0217*%
%ADD77R,0.0572X0.0572*%
%ADD76R,0.0847X0.0847*%
%ADD75R,0.0520X0.0520*%
%ADD74C,0.1110*%
%ADD73C,0.0860*%
%ADD72C,0.0920*%
%ADD71C,0.0730*%
%ADD70C,0.0660*%
%ADD69C,0.0001*%
%ADD68C,0.2997*%
G54D68*X22600Y200400D03*
X20350Y42900D03*
G54D69*G36*
X57700Y211100D02*Y204500D01*
X64300D01*
Y211100D01*
X57700D01*
G37*
G54D70*X61000Y217800D03*
X51000Y207800D03*
Y217800D03*
X61000Y227800D03*
X51000D03*
G54D71*X64000Y243750D03*
Y271850D03*
G54D68*X246900Y200400D03*
X249150Y42900D03*
G54D72*X125157Y35143D03*
Y15457D03*
X144843Y35143D03*
Y15457D03*
G54D69*G36*
X215700Y67100D02*Y58500D01*
X224300D01*
Y67100D01*
X215700D01*
G37*
G54D73*X220000Y82800D03*
G54D74*X206000Y276300D03*
Y257800D03*
Y239300D03*
G54D75*X93000Y48350D02*Y43150D01*
Y14450D02*Y9250D01*
X83000Y48350D02*Y43150D01*
Y14450D02*Y9250D01*
X73000Y48350D02*Y43150D01*
Y14450D02*Y9250D01*
X63000Y48350D02*Y43150D01*
Y14450D02*Y9250D01*
X53000Y14450D02*Y9250D01*
G54D76*X71843Y74800D02*X87591D01*
G54D75*X53000Y48350D02*Y43150D01*
G54D76*X36409Y74800D02*X52157D01*
G54D77*X50457Y91693D02*Y90907D01*
G54D78*X58425Y107734D02*Y103308D01*
X61575Y107734D02*Y103308D01*
X64725Y107734D02*Y103308D01*
X67874Y107734D02*Y103308D01*
X71024Y107734D02*Y103308D01*
X76566Y113277D02*X80992D01*
G54D77*X80457Y103693D02*Y102907D01*
X87543Y103693D02*Y102907D01*
G54D78*X76566Y116426D02*X80992D01*
X76566Y119576D02*X80992D01*
X76566Y122725D02*X80992D01*
X76566Y125875D02*X80992D01*
X76566Y129025D02*X80992D01*
G54D77*X73543Y91693D02*Y90907D01*
X66457Y91693D02*Y90907D01*
X57543Y91693D02*Y90907D01*
G54D78*X76566Y132174D02*X80992D01*
X76566Y135324D02*X80992D01*
X48977Y107734D02*Y103308D01*
X52126Y107734D02*Y103308D01*
X55276Y107734D02*Y103308D01*
X55275Y145292D02*Y140866D01*
X52126Y145292D02*Y140866D01*
X48976Y145292D02*Y140866D01*
X39008Y135323D02*X43434D01*
X39008Y132174D02*X43434D01*
X39008Y129024D02*X43434D01*
X39008Y125875D02*X43434D01*
X39008Y122725D02*X43434D01*
X39008Y119575D02*X43434D01*
X39008Y116426D02*X43434D01*
X39008Y113276D02*X43434D01*
G54D77*X218043Y18693D02*Y17907D01*
X210957Y18693D02*Y17907D01*
G54D79*X211043Y43143D02*X211643D01*
X211043Y35343D02*X211643D01*
X219243Y39243D02*X219843D01*
G54D80*X194200Y36000D02*Y14600D01*
G54D69*G36*
X189577Y37396D02*X195596Y31377D01*
X193050Y28831D01*
X187031Y34850D01*
X189577Y37396D01*
G37*
G36*
X187031Y15750D02*X193050Y21769D01*
X195596Y19223D01*
X189577Y13204D01*
X187031Y15750D01*
G37*
G36*
X191250Y36650D02*Y33050D01*
X194850D01*
Y36650D01*
X191250D01*
G37*
G36*
Y17550D02*Y13950D01*
X194850D01*
Y17550D01*
X191250D01*
G37*
G54D80*X188600Y14600D02*X194200D01*
X172800Y36000D02*Y14600D01*
Y36000D02*X178400D01*
G54D69*G36*
X171404Y31377D02*X177423Y37396D01*
X179969Y34850D01*
X173950Y28831D01*
X171404Y31377D01*
G37*
G36*
X172150Y36650D02*Y33050D01*
X175750D01*
Y36650D01*
X172150D01*
G37*
G54D80*X172800Y14600D02*X178400D01*
G54D69*G36*
X173950Y21769D02*X179969Y15750D01*
X177423Y13204D01*
X171404Y19223D01*
X173950Y21769D01*
G37*
G36*
X172150Y17550D02*Y13950D01*
X175750D01*
Y17550D01*
X172150D01*
G37*
G54D81*X215600Y101900D02*Y100300D01*
X219500Y101900D02*Y100300D01*
X223400Y101900D02*Y100300D01*
Y110100D02*Y108500D01*
G54D82*X208500Y121300D02*X229000D01*
X208500Y131300D02*X229000D01*
X208500Y141300D02*X229000D01*
G54D81*X219500Y110100D02*Y108500D01*
X215600Y110100D02*Y108500D01*
G54D77*X181543Y63693D02*Y62907D01*
X174457Y63693D02*Y62907D01*
X192107Y66757D02*X192893D01*
X174457Y83693D02*Y82907D01*
X181543Y83693D02*Y82907D01*
X174457Y73693D02*Y72907D01*
X181543Y73693D02*Y72907D01*
X192107Y73843D02*X192893D01*
G54D83*X181953Y53828D02*Y52056D01*
X179984Y53828D02*Y52056D01*
X178016Y53828D02*Y52056D01*
X176047Y53828D02*Y52056D01*
Y46544D02*Y44772D01*
X178016Y46544D02*Y44772D01*
X179984Y46544D02*Y44772D01*
X181953Y46544D02*Y44772D01*
G54D84*X176047Y49300D02*X181953D01*
G54D85*X175870D02*X182130D01*
G54D77*X192107Y45757D02*X192893D01*
X192107Y52843D02*X192893D01*
G54D80*X188600Y36000D02*X194200D01*
G54D86*X170059Y268233D02*X175571D01*
X170059Y252485D02*X175571D01*
X170059Y236737D02*X175571D01*
X170059Y220989D02*X175571D01*
X170059Y205241D02*X175571D01*
X181043Y197367D02*X186555D01*
X181043Y213115D02*X186555D01*
X181043Y228863D02*X186555D01*
X181043Y244611D02*X186555D01*
X181043Y260359D02*X186555D01*
G54D77*X61050Y252700D02*Y251100D01*
X66950Y252700D02*Y251100D01*
X61050Y264500D02*Y262900D01*
X66950Y264500D02*Y262900D01*
X121043Y238193D02*Y237407D01*
X113957Y238193D02*Y237407D01*
X121043Y228193D02*Y227407D01*
X113957Y228193D02*Y227407D01*
G54D86*X83445Y268233D02*X88957D01*
X83445Y252485D02*X88957D01*
X94429Y244611D02*X99941D01*
X94429Y260359D02*X99941D01*
X83445Y236737D02*X88957D01*
X83445Y220989D02*X88957D01*
X83445Y205241D02*X88957D01*
X94429Y197367D02*X99941D01*
X94429Y213115D02*X99941D01*
X94429Y228863D02*X99941D01*
G54D77*X69107Y152757D02*X69893D01*
X69107Y159843D02*X69893D01*
X59607Y152757D02*X60393D01*
X59607Y159843D02*X60393D01*
G54D78*X71023Y145292D02*Y140866D01*
X67874Y145292D02*Y140866D01*
X64724Y145292D02*Y140866D01*
X61575Y145292D02*Y140866D01*
X58425Y145292D02*Y140866D01*
G54D77*X31457Y291193D02*Y290407D01*
X38543Y291193D02*Y290407D01*
X31457Y281193D02*Y280407D01*
X38543Y281193D02*Y280407D01*
X23957Y242693D02*Y241907D01*
X31043Y242693D02*Y241907D01*
X23957Y231693D02*Y230907D01*
X31043Y231693D02*Y230907D01*
M02*
