G04 start of page 13 for group -3984 idx -3984 *
G04 Title: (unknown), fab *
G04 Creator: pcb 20110918 *
G04 CreationDate: Thu 09 Jul 2015 02:06:34 AM GMT UTC *
G04 For: petersen *
G04 Format: Gerber/RS-274X *
G04 PCB-Dimensions: 269500 307800 *
G04 PCB-Coordinate-Origin: lower left *
%MOIN*%
%FSLAX25Y25*%
%LNFAB*%
%ADD114C,0.0050*%
%ADD113C,0.0040*%
%ADD112C,0.0100*%
%ADD111C,0.0075*%
%ADD110C,0.0060*%
%ADD109R,0.0080X0.0080*%
G54D109*X22600Y203600D02*Y197200D01*
X19400Y200400D02*X25800D01*
X21000Y202000D02*X24200D01*
X21000D02*Y198800D01*
X24200D01*
Y202000D02*Y198800D01*
X20350Y46100D02*Y39700D01*
X17150Y42900D02*X23550D01*
X18750Y44500D02*X21950D01*
X18750D02*Y41300D01*
X21950D01*
Y44500D02*Y41300D01*
X246900Y203600D02*Y197200D01*
X243700Y200400D02*X250100D01*
X245300Y202000D02*X248500D01*
X245300D02*Y198800D01*
X248500D01*
Y202000D02*Y198800D01*
X249150Y46100D02*Y39700D01*
X245950Y42900D02*X252350D01*
X247550Y44500D02*X250750D01*
X247550D02*Y41300D01*
X250750D01*
Y44500D02*Y41300D01*
X15000Y322250D02*Y315850D01*
X11800Y319050D02*X18200D01*
X13400Y320650D02*X16600D01*
X13400D02*Y317450D01*
X16600D01*
Y320650D02*Y317450D01*
G54D110*X135000Y321300D02*X136500Y318300D01*
X138000Y321300D01*
X136500Y318300D02*Y315300D01*
X139800Y318600D02*X142050D01*
X139800Y315300D02*X142800D01*
X139800Y321300D02*Y315300D01*
Y321300D02*X142800D01*
X147600D02*X148350Y320550D01*
X145350Y321300D02*X147600D01*
X144600Y320550D02*X145350Y321300D01*
X144600Y320550D02*Y319050D01*
X145350Y318300D01*
X147600D01*
X148350Y317550D01*
Y316050D01*
X147600Y315300D02*X148350Y316050D01*
X145350Y315300D02*X147600D01*
X144600Y316050D02*X145350Y315300D01*
X98000Y317550D02*X101000Y321300D01*
X98000Y317550D02*X101750D01*
X101000Y321300D02*Y315300D01*
X45000Y316050D02*X45750Y315300D01*
X45000Y320550D02*Y316050D01*
Y320550D02*X45750Y321300D01*
X47250D01*
X48000Y320550D01*
Y316050D01*
X47250Y315300D02*X48000Y316050D01*
X45750Y315300D02*X47250D01*
X45000Y316800D02*X48000Y319800D01*
X49800Y315300D02*X50550D01*
X52350Y320100D02*X53550Y321300D01*
Y315300D01*
X52350D02*X54600D01*
X56400Y320550D02*X57150Y321300D01*
X59400D01*
X60150Y320550D01*
Y319050D01*
X56400Y315300D02*X60150Y319050D01*
X56400Y315300D02*X60150D01*
X62700D02*X64950Y318300D01*
Y320550D02*Y318300D01*
X64200Y321300D02*X64950Y320550D01*
X62700Y321300D02*X64200D01*
X61950Y320550D02*X62700Y321300D01*
X61950Y320550D02*Y319050D01*
X62700Y318300D01*
X64950D01*
X206000Y276300D02*Y273100D01*
Y276300D02*X208773Y277900D01*
X206000Y276300D02*X203227Y277900D01*
X204400Y276300D02*G75*G03X207600Y276300I1600J0D01*G01*
G75*G03X204400Y276300I-1600J0D01*G01*
X206000Y257800D02*Y254600D01*
Y257800D02*X208773Y259400D01*
X206000Y257800D02*X203227Y259400D01*
X204400Y257800D02*G75*G03X207600Y257800I1600J0D01*G01*
G75*G03X204400Y257800I-1600J0D01*G01*
X206000Y239300D02*Y236100D01*
Y239300D02*X208773Y240900D01*
X206000Y239300D02*X203227Y240900D01*
X204400Y239300D02*G75*G03X207600Y239300I1600J0D01*G01*
G75*G03X204400Y239300I-1600J0D01*G01*
X15000Y334050D02*Y330850D01*
Y334050D02*X17773Y335650D01*
X15000Y334050D02*X12227Y335650D01*
X13400Y334050D02*G75*G03X16600Y334050I1600J0D01*G01*
G75*G03X13400Y334050I-1600J0D01*G01*
X135000Y336300D02*X136500Y333300D01*
X138000Y336300D01*
X136500Y333300D02*Y330300D01*
X139800Y333600D02*X142050D01*
X139800Y330300D02*X142800D01*
X139800Y336300D02*Y330300D01*
Y336300D02*X142800D01*
X147600D02*X148350Y335550D01*
X145350Y336300D02*X147600D01*
X144600Y335550D02*X145350Y336300D01*
X144600Y335550D02*Y334050D01*
X145350Y333300D01*
X147600D01*
X148350Y332550D01*
Y331050D01*
X147600Y330300D02*X148350Y331050D01*
X145350Y330300D02*X147600D01*
X144600Y331050D02*X145350Y330300D01*
X98000Y335550D02*X98750Y336300D01*
X100250D01*
X101000Y335550D01*
X100250Y330300D02*X101000Y331050D01*
X98750Y330300D02*X100250D01*
X98000Y331050D02*X98750Y330300D01*
Y333600D02*X100250D01*
X101000Y335550D02*Y334350D01*
Y332850D02*Y331050D01*
Y332850D02*X100250Y333600D01*
X101000Y334350D02*X100250Y333600D01*
X45000Y331050D02*X45750Y330300D01*
X45000Y335550D02*Y331050D01*
Y335550D02*X45750Y336300D01*
X47250D01*
X48000Y335550D01*
Y331050D01*
X47250Y330300D02*X48000Y331050D01*
X45750Y330300D02*X47250D01*
X45000Y331800D02*X48000Y334800D01*
X49800Y330300D02*X50550D01*
X52350Y331050D02*X53100Y330300D01*
X52350Y335550D02*Y331050D01*
Y335550D02*X53100Y336300D01*
X54600D01*
X55350Y335550D01*
Y331050D01*
X54600Y330300D02*X55350Y331050D01*
X53100Y330300D02*X54600D01*
X52350Y331800D02*X55350Y334800D01*
X57900Y330300D02*X60900Y336300D01*
X57150D02*X60900D01*
X62700D02*X65700D01*
X62700D02*Y333300D01*
X63450Y334050D01*
X64950D01*
X65700Y333300D01*
Y331050D01*
X64950Y330300D02*X65700Y331050D01*
X63450Y330300D02*X64950D01*
X62700Y331050D02*X63450Y330300D01*
X62400Y245350D02*X65600D01*
X62400D02*Y242150D01*
X65600D01*
Y245350D02*Y242150D01*
X62400Y273450D02*X65600D01*
X62400D02*Y270250D01*
X65600D01*
Y273450D02*Y270250D01*
X13400Y350650D02*X16600D01*
X13400D02*Y347450D01*
X16600D01*
Y350650D02*Y347450D01*
X140000Y351300D02*Y345300D01*
Y351300D02*X143750Y345300D01*
Y351300D02*Y345300D01*
X145550Y350550D02*Y346050D01*
Y350550D02*X146300Y351300D01*
X147800D01*
X148550Y350550D01*
Y346050D01*
X147800Y345300D02*X148550Y346050D01*
X146300Y345300D02*X147800D01*
X145550Y346050D02*X146300Y345300D01*
X98000Y350550D02*X98750Y351300D01*
X101000D01*
X101750Y350550D01*
Y349050D01*
X98000Y345300D02*X101750Y349050D01*
X98000Y345300D02*X101750D01*
X45000Y346050D02*X45750Y345300D01*
X45000Y350550D02*Y346050D01*
Y350550D02*X45750Y351300D01*
X47250D01*
X48000Y350550D01*
Y346050D01*
X47250Y345300D02*X48000Y346050D01*
X45750Y345300D02*X47250D01*
X45000Y346800D02*X48000Y349800D01*
X49800Y345300D02*X50550D01*
X52350Y346050D02*X53100Y345300D01*
X52350Y350550D02*Y346050D01*
Y350550D02*X53100Y351300D01*
X54600D01*
X55350Y350550D01*
Y346050D01*
X54600Y345300D02*X55350Y346050D01*
X53100Y345300D02*X54600D01*
X52350Y346800D02*X55350Y349800D01*
X59400Y351300D02*X60150Y350550D01*
X57900Y351300D02*X59400D01*
X57150Y350550D02*X57900Y351300D01*
X57150Y350550D02*Y346050D01*
X57900Y345300D01*
X59400Y348600D02*X60150Y347850D01*
X57150Y348600D02*X59400D01*
X57900Y345300D02*X59400D01*
X60150Y346050D01*
Y347850D02*Y346050D01*
X61950Y350550D02*X62700Y351300D01*
X64200D01*
X64950Y350550D01*
X64200Y345300D02*X64950Y346050D01*
X62700Y345300D02*X64200D01*
X61950Y346050D02*X62700Y345300D01*
Y348600D02*X64200D01*
X64950Y350550D02*Y349350D01*
Y347850D02*Y346050D01*
Y347850D02*X64200Y348600D01*
X64950Y349350D02*X64200Y348600D01*
X219200Y62800D02*G75*G03X220800Y62800I800J0D01*G01*
G75*G03X219200Y62800I-800J0D01*G01*
Y82800D02*G75*G03X220800Y82800I800J0D01*G01*
G75*G03X219200Y82800I-800J0D01*G01*
X14200Y364050D02*G75*G03X15800Y364050I800J0D01*G01*
G75*G03X14200Y364050I-800J0D01*G01*
X135000Y366300D02*X136500Y363300D01*
X138000Y366300D01*
X136500Y363300D02*Y360300D01*
X139800Y363600D02*X142050D01*
X139800Y360300D02*X142800D01*
X139800Y366300D02*Y360300D01*
Y366300D02*X142800D01*
X147600D02*X148350Y365550D01*
X145350Y366300D02*X147600D01*
X144600Y365550D02*X145350Y366300D01*
X144600Y365550D02*Y364050D01*
X145350Y363300D01*
X147600D01*
X148350Y362550D01*
Y361050D01*
X147600Y360300D02*X148350Y361050D01*
X145350Y360300D02*X147600D01*
X144600Y361050D02*X145350Y360300D01*
X98000Y365550D02*X98750Y366300D01*
X101000D01*
X101750Y365550D01*
Y364050D01*
X98000Y360300D02*X101750Y364050D01*
X98000Y360300D02*X101750D01*
X45000Y361050D02*X45750Y360300D01*
X45000Y365550D02*Y361050D01*
Y365550D02*X45750Y366300D01*
X47250D01*
X48000Y365550D01*
Y361050D01*
X47250Y360300D02*X48000Y361050D01*
X45750Y360300D02*X47250D01*
X45000Y361800D02*X48000Y364800D01*
X49800Y360300D02*X50550D01*
X52350Y361050D02*X53100Y360300D01*
X52350Y365550D02*Y361050D01*
Y365550D02*X53100Y366300D01*
X54600D01*
X55350Y365550D01*
Y361050D01*
X54600Y360300D02*X55350Y361050D01*
X53100Y360300D02*X54600D01*
X52350Y361800D02*X55350Y364800D01*
X57150Y362550D02*X60150Y366300D01*
X57150Y362550D02*X60900D01*
X60150Y366300D02*Y360300D01*
X62700Y361050D02*X63450Y360300D01*
X62700Y362250D02*Y361050D01*
Y362250D02*X63750Y363300D01*
X64650D01*
X65700Y362250D01*
Y361050D01*
X64950Y360300D02*X65700Y361050D01*
X63450Y360300D02*X64950D01*
X62700Y364350D02*X63750Y363300D01*
X62700Y365550D02*Y364350D01*
Y365550D02*X63450Y366300D01*
X64950D01*
X65700Y365550D01*
Y364350D01*
X64650Y363300D02*X65700Y364350D01*
X123957Y36343D02*X126357Y33943D01*
X123957D02*X126357Y36343D01*
X143643D02*X146043Y33943D01*
X143643D02*X146043Y36343D01*
X123957Y16657D02*X126357Y14257D01*
X123957D02*X126357Y16657D01*
X143643D02*X146043Y14257D01*
X143643D02*X146043Y16657D01*
X13800Y380250D02*X16200Y377850D01*
X13800D02*X16200Y380250D01*
X135000Y381300D02*X136500Y378300D01*
X138000Y381300D01*
X136500Y378300D02*Y375300D01*
X139800Y378600D02*X142050D01*
X139800Y375300D02*X142800D01*
X139800Y381300D02*Y375300D01*
Y381300D02*X142800D01*
X147600D02*X148350Y380550D01*
X145350Y381300D02*X147600D01*
X144600Y380550D02*X145350Y381300D01*
X144600Y380550D02*Y379050D01*
X145350Y378300D01*
X147600D01*
X148350Y377550D01*
Y376050D01*
X147600Y375300D02*X148350Y376050D01*
X145350Y375300D02*X147600D01*
X144600Y376050D02*X145350Y375300D01*
X98000Y377550D02*X101000Y381300D01*
X98000Y377550D02*X101750D01*
X101000Y381300D02*Y375300D01*
X45000Y376050D02*X45750Y375300D01*
X45000Y380550D02*Y376050D01*
Y380550D02*X45750Y381300D01*
X47250D01*
X48000Y380550D01*
Y376050D01*
X47250Y375300D02*X48000Y376050D01*
X45750Y375300D02*X47250D01*
X45000Y376800D02*X48000Y379800D01*
X49800Y375300D02*X50550D01*
X52350Y376050D02*X53100Y375300D01*
X52350Y380550D02*Y376050D01*
Y380550D02*X53100Y381300D01*
X54600D01*
X55350Y380550D01*
Y376050D01*
X54600Y375300D02*X55350Y376050D01*
X53100Y375300D02*X54600D01*
X52350Y376800D02*X55350Y379800D01*
X57150Y377550D02*X60150Y381300D01*
X57150Y377550D02*X60900D01*
X60150Y381300D02*Y375300D01*
X62700Y380550D02*X63450Y381300D01*
X64950D01*
X65700Y380550D01*
X64950Y375300D02*X65700Y376050D01*
X63450Y375300D02*X64950D01*
X62700Y376050D02*X63450Y375300D01*
Y378600D02*X64950D01*
X65700Y380550D02*Y379350D01*
Y377850D02*Y376050D01*
Y377850D02*X64950Y378600D01*
X65700Y379350D02*X64950Y378600D01*
X61000Y209400D02*Y206200D01*
X59400Y207800D02*X62600D01*
X61000Y219400D02*Y216200D01*
X59400Y217800D02*X62600D01*
X61000Y229400D02*Y226200D01*
X59400Y227800D02*X62600D01*
X51000Y209400D02*Y206200D01*
X49400Y207800D02*X52600D01*
X51000Y219400D02*Y216200D01*
X49400Y217800D02*X52600D01*
X51000Y229400D02*Y226200D01*
X49400Y227800D02*X52600D01*
X15000Y395650D02*Y392450D01*
X13400Y394050D02*X16600D01*
X135000Y396300D02*X136500Y393300D01*
X138000Y396300D01*
X136500Y393300D02*Y390300D01*
X139800Y393600D02*X142050D01*
X139800Y390300D02*X142800D01*
X139800Y396300D02*Y390300D01*
Y396300D02*X142800D01*
X147600D02*X148350Y395550D01*
X145350Y396300D02*X147600D01*
X144600Y395550D02*X145350Y396300D01*
X144600Y395550D02*Y394050D01*
X145350Y393300D01*
X147600D01*
X148350Y392550D01*
Y391050D01*
X147600Y390300D02*X148350Y391050D01*
X145350Y390300D02*X147600D01*
X144600Y391050D02*X145350Y390300D01*
X100250Y396300D02*X101000Y395550D01*
X98750Y396300D02*X100250D01*
X98000Y395550D02*X98750Y396300D01*
X98000Y395550D02*Y391050D01*
X98750Y390300D01*
X100250Y393600D02*X101000Y392850D01*
X98000Y393600D02*X100250D01*
X98750Y390300D02*X100250D01*
X101000Y391050D01*
Y392850D02*Y391050D01*
X45000D02*X45750Y390300D01*
X45000Y395550D02*Y391050D01*
Y395550D02*X45750Y396300D01*
X47250D01*
X48000Y395550D01*
Y391050D01*
X47250Y390300D02*X48000Y391050D01*
X45750Y390300D02*X47250D01*
X45000Y391800D02*X48000Y394800D01*
X49800Y390300D02*X50550D01*
X52350Y391050D02*X53100Y390300D01*
X52350Y395550D02*Y391050D01*
Y395550D02*X53100Y396300D01*
X54600D01*
X55350Y395550D01*
Y391050D01*
X54600Y390300D02*X55350Y391050D01*
X53100Y390300D02*X54600D01*
X52350Y391800D02*X55350Y394800D01*
X57150Y395550D02*X57900Y396300D01*
X59400D01*
X60150Y395550D01*
X59400Y390300D02*X60150Y391050D01*
X57900Y390300D02*X59400D01*
X57150Y391050D02*X57900Y390300D01*
Y393600D02*X59400D01*
X60150Y395550D02*Y394350D01*
Y392850D02*Y391050D01*
Y392850D02*X59400Y393600D01*
X60150Y394350D02*X59400Y393600D01*
X61950Y391050D02*X62700Y390300D01*
X61950Y392250D02*Y391050D01*
Y392250D02*X63000Y393300D01*
X63900D01*
X64950Y392250D01*
Y391050D01*
X64200Y390300D02*X64950Y391050D01*
X62700Y390300D02*X64200D01*
X61950Y394350D02*X63000Y393300D01*
X61950Y395550D02*Y394350D01*
Y395550D02*X62700Y396300D01*
X64200D01*
X64950Y395550D01*
Y394350D01*
X63900Y393300D02*X64950Y394350D01*
X59500Y85800D02*Y84200D01*
Y85800D02*X60887Y86600D01*
X59500Y85800D02*X58113Y86600D01*
X64500Y85800D02*Y84200D01*
Y85800D02*X65887Y86600D01*
X64500Y85800D02*X63113Y86600D01*
X54500Y159800D02*Y158200D01*
Y159800D02*X55887Y160600D01*
X54500Y159800D02*X53113Y160600D01*
X75000Y159800D02*Y158200D01*
Y159800D02*X76387Y160600D01*
X75000Y159800D02*X73613Y160600D01*
X58425Y135300D02*Y133700D01*
Y135300D02*X59812Y136100D01*
X58425Y135300D02*X57038Y136100D01*
X55276Y113300D02*Y111700D01*
Y113300D02*X56663Y114100D01*
X55276Y113300D02*X53889Y114100D01*
X61575Y113300D02*Y111700D01*
Y113300D02*X62962Y114100D01*
X61575Y113300D02*X60188Y114100D01*
X87000Y129025D02*Y127425D01*
Y129025D02*X88387Y129825D01*
X87000Y129025D02*X85613Y129825D01*
X90500Y125875D02*Y124275D01*
Y125875D02*X91887Y126675D01*
X90500Y125875D02*X89113Y126675D01*
X94000Y122725D02*Y121125D01*
Y122725D02*X95387Y123525D01*
X94000Y122725D02*X92613Y123525D01*
X93000Y53800D02*Y52200D01*
Y53800D02*X94387Y54600D01*
X93000Y53800D02*X91613Y54600D01*
X83000Y53800D02*Y52200D01*
Y53800D02*X84387Y54600D01*
X83000Y53800D02*X81613Y54600D01*
X73000Y53800D02*Y52200D01*
Y53800D02*X74387Y54600D01*
X73000Y53800D02*X71613Y54600D01*
X98500Y90300D02*Y88700D01*
Y90300D02*X99887Y91100D01*
X98500Y90300D02*X97113Y91100D01*
X86000Y93800D02*Y92200D01*
Y93800D02*X87387Y94600D01*
X86000Y93800D02*X84613Y94600D01*
X86000Y97800D02*Y96200D01*
Y97800D02*X87387Y98600D01*
X86000Y97800D02*X84613Y98600D01*
X86000Y89800D02*Y88200D01*
Y89800D02*X87387Y90600D01*
X86000Y89800D02*X84613Y90600D01*
X102500Y90300D02*Y88700D01*
Y90300D02*X103887Y91100D01*
X102500Y90300D02*X101113Y91100D01*
X106500Y90300D02*Y88700D01*
Y90300D02*X107887Y91100D01*
X106500Y90300D02*X105113Y91100D01*
X170500Y45300D02*Y43700D01*
Y45300D02*X171887Y46100D01*
X170500Y45300D02*X169113Y46100D01*
X170500Y53300D02*Y51700D01*
Y53300D02*X171887Y54100D01*
X170500Y53300D02*X169113Y54100D01*
X170500Y49300D02*Y47700D01*
Y49300D02*X171887Y50100D01*
X170500Y49300D02*X169113Y50100D01*
X189500Y59800D02*Y58200D01*
Y59800D02*X190887Y60600D01*
X189500Y59800D02*X188113Y60600D01*
X193000Y57800D02*Y56200D01*
Y57800D02*X194387Y58600D01*
X193000Y57800D02*X191613Y58600D01*
X193000Y61800D02*Y60200D01*
Y61800D02*X194387Y62600D01*
X193000Y61800D02*X191613Y62600D01*
X84000Y119576D02*Y117976D01*
Y119576D02*X85387Y120376D01*
X84000Y119576D02*X82613Y120376D01*
X45500Y100800D02*Y99200D01*
Y100800D02*X46887Y101600D01*
X45500Y100800D02*X44113Y101600D01*
X177500Y172300D02*Y170700D01*
Y172300D02*X178887Y173100D01*
X177500Y172300D02*X176113Y173100D01*
X191000Y172300D02*Y170700D01*
Y172300D02*X192387Y173100D01*
X191000Y172300D02*X189613Y173100D01*
X177500Y176800D02*Y175200D01*
Y176800D02*X178887Y177600D01*
X177500Y176800D02*X176113Y177600D01*
X191000Y181300D02*Y179700D01*
Y181300D02*X192387Y182100D01*
X191000Y181300D02*X189613Y182100D01*
X191000Y185800D02*Y184200D01*
Y185800D02*X192387Y186600D01*
X191000Y185800D02*X189613Y186600D01*
X202000Y179800D02*Y178200D01*
Y179800D02*X203387Y180600D01*
X202000Y179800D02*X200613Y180600D01*
X230500Y61300D02*Y59700D01*
Y61300D02*X231887Y62100D01*
X230500Y61300D02*X229113Y62100D01*
X219500Y96300D02*Y94700D01*
Y96300D02*X220887Y97100D01*
X219500Y96300D02*X218113Y97100D01*
X219500Y114300D02*Y112700D01*
Y114300D02*X220887Y115100D01*
X219500Y114300D02*X218113Y115100D01*
X215000Y114300D02*Y112700D01*
Y114300D02*X216387Y115100D01*
X215000Y114300D02*X213613Y115100D01*
X224000Y114300D02*Y112700D01*
Y114300D02*X225387Y115100D01*
X224000Y114300D02*X222613Y115100D01*
X237500Y131300D02*Y129700D01*
Y131300D02*X238887Y132100D01*
X237500Y131300D02*X236113Y132100D01*
X250500Y128800D02*Y127200D01*
Y128800D02*X251887Y129600D01*
X250500Y128800D02*X249113Y129600D01*
X171500Y177800D02*Y176200D01*
Y177800D02*X172887Y178600D01*
X171500Y177800D02*X170113Y178600D01*
X165000Y179800D02*Y178200D01*
Y179800D02*X166387Y180600D01*
X165000Y179800D02*X163613Y180600D01*
X94000Y205241D02*Y203641D01*
Y205241D02*X95387Y206041D01*
X94000Y205241D02*X92613Y206041D01*
X157500Y181800D02*Y180200D01*
Y181800D02*X158887Y182600D01*
X157500Y181800D02*X156113Y182600D01*
X194000Y189300D02*Y187700D01*
Y189300D02*X195387Y190100D01*
X194000Y189300D02*X192613Y190100D01*
X149500Y183800D02*Y182200D01*
Y183800D02*X150887Y184600D01*
X149500Y183800D02*X148113Y184600D01*
X194000Y193800D02*Y192200D01*
Y193800D02*X195387Y194600D01*
X194000Y193800D02*X192613Y194600D01*
X194000Y198300D02*Y196700D01*
Y198300D02*X195387Y199100D01*
X194000Y198300D02*X192613Y199100D01*
X142000Y185800D02*Y184200D01*
Y185800D02*X143387Y186600D01*
X142000Y185800D02*X140613Y186600D01*
X38500Y185800D02*Y184200D01*
Y185800D02*X39887Y186600D01*
X38500Y185800D02*X37113Y186600D01*
X90000Y189800D02*Y188200D01*
Y189800D02*X91387Y190600D01*
X90000Y189800D02*X88613Y190600D01*
X84000Y191800D02*Y190200D01*
Y191800D02*X85387Y192600D01*
X84000Y191800D02*X82613Y192600D01*
X84000Y200800D02*Y199200D01*
Y200800D02*X85387Y201600D01*
X84000Y200800D02*X82613Y201600D01*
X90000Y198800D02*Y197200D01*
Y198800D02*X91387Y199600D01*
X90000Y198800D02*X88613Y199600D01*
X135500Y187800D02*Y186200D01*
Y187800D02*X136887Y188600D01*
X135500Y187800D02*X134113Y188600D01*
X131500Y191300D02*Y189700D01*
Y191300D02*X132887Y192100D01*
X131500Y191300D02*X130113Y192100D01*
X190500Y201800D02*Y200200D01*
Y201800D02*X191887Y202600D01*
X190500Y201800D02*X189113Y202600D01*
X165500Y205241D02*Y203641D01*
Y205241D02*X166887Y206041D01*
X165500Y205241D02*X164113Y206041D01*
X90000Y136300D02*Y134700D01*
Y136300D02*X91387Y137100D01*
X90000Y136300D02*X88613Y137100D01*
X90000Y140800D02*Y139200D01*
Y140800D02*X91387Y141600D01*
X90000Y140800D02*X88613Y141600D01*
X90000Y145300D02*Y143700D01*
Y145300D02*X91387Y146100D01*
X90000Y145300D02*X88613Y146100D01*
X90000Y149800D02*Y148200D01*
Y149800D02*X91387Y150600D01*
X90000Y149800D02*X88613Y150600D01*
X90000Y154300D02*Y152700D01*
Y154300D02*X91387Y155100D01*
X90000Y154300D02*X88613Y155100D01*
X76000Y196800D02*Y195200D01*
Y196800D02*X77387Y197600D01*
X76000Y196800D02*X74613Y197600D01*
X72500Y199800D02*Y198200D01*
Y199800D02*X73887Y200600D01*
X72500Y199800D02*X71113Y200600D01*
X69000Y196800D02*Y195200D01*
Y196800D02*X70387Y197600D01*
X69000Y196800D02*X67613Y197600D01*
X65500Y199800D02*Y198200D01*
Y199800D02*X66887Y200600D01*
X65500Y199800D02*X64113Y200600D01*
X62000Y196800D02*Y195200D01*
Y196800D02*X63387Y197600D01*
X62000Y196800D02*X60613Y197600D01*
X76000Y217800D02*Y216200D01*
Y217800D02*X77387Y218600D01*
X76000Y217800D02*X74613Y218600D01*
X40000Y191800D02*Y190200D01*
Y191800D02*X41387Y192600D01*
X40000Y191800D02*X38613Y192600D01*
X54500Y251800D02*Y250200D01*
Y251800D02*X55887Y252600D01*
X54500Y251800D02*X53113Y252600D01*
X142000Y268300D02*Y266700D01*
Y268300D02*X143387Y269100D01*
X142000Y268300D02*X140613Y269100D01*
X137500Y268300D02*Y266700D01*
Y268300D02*X138887Y269100D01*
X137500Y268300D02*X136113Y269100D01*
X133000Y268300D02*Y266700D01*
Y268300D02*X134387Y269100D01*
X133000Y268300D02*X131613Y269100D01*
X128500Y268300D02*Y266700D01*
Y268300D02*X129887Y269100D01*
X128500Y268300D02*X127113Y269100D01*
X32000Y127800D02*Y126200D01*
Y127800D02*X33387Y128600D01*
X32000Y127800D02*X30613Y128600D01*
X36500Y230300D02*Y228700D01*
Y230300D02*X37887Y231100D01*
X36500Y230300D02*X35113Y231100D01*
X36500Y234800D02*Y233200D01*
Y234800D02*X37887Y235600D01*
X36500Y234800D02*X35113Y235600D01*
X112500Y222300D02*Y220700D01*
Y222300D02*X113887Y223100D01*
X112500Y222300D02*X111113Y223100D01*
X112500Y217800D02*Y216200D01*
Y217800D02*X113887Y218600D01*
X112500Y217800D02*X111113Y218600D01*
X112500Y213300D02*Y211700D01*
Y213300D02*X113887Y214100D01*
X112500Y213300D02*X111113Y214100D01*
X112500Y208800D02*Y207200D01*
Y208800D02*X113887Y209600D01*
X112500Y208800D02*X111113Y209600D01*
X54500Y164300D02*Y162700D01*
Y164300D02*X55887Y165100D01*
X54500Y164300D02*X53113Y165100D01*
X75000Y164300D02*Y162700D01*
Y164300D02*X76387Y165100D01*
X75000Y164300D02*X73613Y165100D01*
X24000Y119800D02*Y118200D01*
Y119800D02*X25387Y120600D01*
X24000Y119800D02*X22613Y120600D01*
X35000Y122725D02*Y121125D01*
Y122725D02*X36387Y123525D01*
X35000Y122725D02*X33613Y123525D01*
X15000Y409050D02*Y407450D01*
Y409050D02*X16387Y409850D01*
X15000Y409050D02*X13613Y409850D01*
X135000Y411300D02*X136500Y408300D01*
X138000Y411300D01*
X136500Y408300D02*Y405300D01*
X139800Y408600D02*X142050D01*
X139800Y405300D02*X142800D01*
X139800Y411300D02*Y405300D01*
Y411300D02*X142800D01*
X147600D02*X148350Y410550D01*
X145350Y411300D02*X147600D01*
X144600Y410550D02*X145350Y411300D01*
X144600Y410550D02*Y409050D01*
X145350Y408300D01*
X147600D01*
X148350Y407550D01*
Y406050D01*
X147600Y405300D02*X148350Y406050D01*
X145350Y405300D02*X147600D01*
X144600Y406050D02*X145350Y405300D01*
X98000Y406050D02*X98750Y405300D01*
X98000Y407250D02*Y406050D01*
Y407250D02*X99050Y408300D01*
X99950D01*
X101000Y407250D01*
Y406050D01*
X100250Y405300D02*X101000Y406050D01*
X98750Y405300D02*X100250D01*
X98000Y409350D02*X99050Y408300D01*
X98000Y410550D02*Y409350D01*
Y410550D02*X98750Y411300D01*
X100250D01*
X101000Y410550D01*
Y409350D01*
X99950Y408300D02*X101000Y409350D01*
X105050Y411300D02*X105800Y410550D01*
X103550Y411300D02*X105050D01*
X102800Y410550D02*X103550Y411300D01*
X102800Y410550D02*Y406050D01*
X103550Y405300D01*
X105050Y408600D02*X105800Y407850D01*
X102800Y408600D02*X105050D01*
X103550Y405300D02*X105050D01*
X105800Y406050D01*
Y407850D02*Y406050D01*
X45000D02*X45750Y405300D01*
X45000Y410550D02*Y406050D01*
Y410550D02*X45750Y411300D01*
X47250D01*
X48000Y410550D01*
Y406050D01*
X47250Y405300D02*X48000Y406050D01*
X45750Y405300D02*X47250D01*
X45000Y406800D02*X48000Y409800D01*
X49800Y405300D02*X50550D01*
X52350Y406050D02*X53100Y405300D01*
X52350Y410550D02*Y406050D01*
Y410550D02*X53100Y411300D01*
X54600D01*
X55350Y410550D01*
Y406050D01*
X54600Y405300D02*X55350Y406050D01*
X53100Y405300D02*X54600D01*
X52350Y406800D02*X55350Y409800D01*
X57150Y410550D02*X57900Y411300D01*
X60150D01*
X60900Y410550D01*
Y409050D01*
X57150Y405300D02*X60900Y409050D01*
X57150Y405300D02*X60900D01*
X62700Y406050D02*X63450Y405300D01*
X62700Y410550D02*Y406050D01*
Y410550D02*X63450Y411300D01*
X64950D01*
X65700Y410550D01*
Y406050D01*
X64950Y405300D02*X65700Y406050D01*
X63450Y405300D02*X64950D01*
X62700Y406800D02*X65700Y409800D01*
X3000Y426300D02*X3750Y425550D01*
X750Y426300D02*X3000D01*
X0Y425550D02*X750Y426300D01*
X0Y425550D02*Y424050D01*
X750Y423300D01*
X3000D01*
X3750Y422550D01*
Y421050D01*
X3000Y420300D02*X3750Y421050D01*
X750Y420300D02*X3000D01*
X0Y421050D02*X750Y420300D01*
X5550Y423300D02*Y421050D01*
X6300Y420300D01*
X8550Y423300D02*Y418800D01*
X7800Y418050D02*X8550Y418800D01*
X6300Y418050D02*X7800D01*
X5550Y418800D02*X6300Y418050D01*
Y420300D02*X7800D01*
X8550Y421050D01*
X11100Y422550D02*Y420300D01*
Y422550D02*X11850Y423300D01*
X12600D01*
X13350Y422550D01*
Y420300D01*
Y422550D02*X14100Y423300D01*
X14850D01*
X15600Y422550D01*
Y420300D01*
X10350Y423300D02*X11100Y422550D01*
X17400Y426300D02*Y420300D01*
Y421050D02*X18150Y420300D01*
X19650D01*
X20400Y421050D01*
Y422550D02*Y421050D01*
X19650Y423300D02*X20400Y422550D01*
X18150Y423300D02*X19650D01*
X17400Y422550D02*X18150Y423300D01*
X22200Y422550D02*Y421050D01*
Y422550D02*X22950Y423300D01*
X24450D01*
X25200Y422550D01*
Y421050D01*
X24450Y420300D02*X25200Y421050D01*
X22950Y420300D02*X24450D01*
X22200Y421050D02*X22950Y420300D01*
X27000Y426300D02*Y421050D01*
X27750Y420300D01*
X0Y417050D02*X29250D01*
X41750Y426300D02*Y420300D01*
X43700Y426300D02*X44750Y425250D01*
Y421350D01*
X43700Y420300D02*X44750Y421350D01*
X41000Y420300D02*X43700D01*
X41000Y426300D02*X43700D01*
G54D111*X46550Y424800D02*Y424650D01*
G54D110*Y422550D02*Y420300D01*
X50300Y423300D02*X51050Y422550D01*
X48800Y423300D02*X50300D01*
X48050Y422550D02*X48800Y423300D01*
X48050Y422550D02*Y421050D01*
X48800Y420300D01*
X51050Y423300D02*Y421050D01*
X51800Y420300D01*
X48800D02*X50300D01*
X51050Y421050D01*
X54350Y422550D02*Y420300D01*
Y422550D02*X55100Y423300D01*
X55850D01*
X56600Y422550D01*
Y420300D01*
Y422550D02*X57350Y423300D01*
X58100D01*
X58850Y422550D01*
Y420300D01*
X53600Y423300D02*X54350Y422550D01*
X60650Y420300D02*X61400D01*
X65900Y421050D02*X66650Y420300D01*
X65900Y425550D02*X66650Y426300D01*
X65900Y425550D02*Y421050D01*
X68450Y426300D02*X69950D01*
X69200D02*Y420300D01*
X68450D02*X69950D01*
X72500Y422550D02*Y420300D01*
Y422550D02*X73250Y423300D01*
X74000D01*
X74750Y422550D01*
Y420300D01*
X71750Y423300D02*X72500Y422550D01*
X77300Y423300D02*X79550D01*
X76550Y422550D02*X77300Y423300D01*
X76550Y422550D02*Y421050D01*
X77300Y420300D01*
X79550D01*
X81350Y426300D02*Y420300D01*
Y422550D02*X82100Y423300D01*
X83600D01*
X84350Y422550D01*
Y420300D01*
X86150Y426300D02*X86900Y425550D01*
Y421050D01*
X86150Y420300D02*X86900Y421050D01*
X41000Y417050D02*X88700D01*
X96050Y420300D02*X98000D01*
X95000Y421350D02*X96050Y420300D01*
X95000Y425250D02*Y421350D01*
Y425250D02*X96050Y426300D01*
X98000D01*
X99800Y422550D02*Y421050D01*
Y422550D02*X100550Y423300D01*
X102050D01*
X102800Y422550D01*
Y421050D01*
X102050Y420300D02*X102800Y421050D01*
X100550Y420300D02*X102050D01*
X99800Y421050D02*X100550Y420300D01*
X104600Y423300D02*Y421050D01*
X105350Y420300D01*
X106850D01*
X107600Y421050D01*
Y423300D02*Y421050D01*
X110150Y422550D02*Y420300D01*
Y422550D02*X110900Y423300D01*
X111650D01*
X112400Y422550D01*
Y420300D01*
X109400Y423300D02*X110150Y422550D01*
X114950Y426300D02*Y421050D01*
X115700Y420300D01*
X114200Y424050D02*X115700D01*
X95000Y417050D02*X117200D01*
X130750Y426300D02*Y420300D01*
X130000Y426300D02*X133000D01*
X133750Y425550D01*
Y424050D01*
X133000Y423300D02*X133750Y424050D01*
X130750Y423300D02*X133000D01*
X135550Y426300D02*Y421050D01*
X136300Y420300D01*
X140050Y423300D02*X140800Y422550D01*
X138550Y423300D02*X140050D01*
X137800Y422550D02*X138550Y423300D01*
X137800Y422550D02*Y421050D01*
X138550Y420300D01*
X140800Y423300D02*Y421050D01*
X141550Y420300D01*
X138550D02*X140050D01*
X140800Y421050D01*
X144100Y426300D02*Y421050D01*
X144850Y420300D01*
X143350Y424050D02*X144850D01*
X147100Y420300D02*X149350D01*
X146350Y421050D02*X147100Y420300D01*
X146350Y422550D02*Y421050D01*
Y422550D02*X147100Y423300D01*
X148600D01*
X149350Y422550D01*
X146350Y421800D02*X149350D01*
Y422550D02*Y421800D01*
X154150Y426300D02*Y420300D01*
X153400D02*X154150Y421050D01*
X151900Y420300D02*X153400D01*
X151150Y421050D02*X151900Y420300D01*
X151150Y422550D02*Y421050D01*
Y422550D02*X151900Y423300D01*
X153400D01*
X154150Y422550D01*
X157450Y423300D02*Y422550D01*
Y421050D02*Y420300D01*
X155950Y425550D02*Y424800D01*
Y425550D02*X156700Y426300D01*
X158200D01*
X158950Y425550D01*
Y424800D01*
X157450Y423300D02*X158950Y424800D01*
X130000Y417050D02*X160750D01*
X0Y441300D02*X3000D01*
X1500D02*Y435300D01*
X4800Y441300D02*Y435300D01*
Y437550D02*X5550Y438300D01*
X7050D01*
X7800Y437550D01*
Y435300D01*
X10350D02*X12600D01*
X9600Y436050D02*X10350Y435300D01*
X9600Y437550D02*Y436050D01*
Y437550D02*X10350Y438300D01*
X11850D01*
X12600Y437550D01*
X9600Y436800D02*X12600D01*
Y437550D02*Y436800D01*
X15150Y437550D02*Y435300D01*
Y437550D02*X15900Y438300D01*
X17400D01*
X14400D02*X15150Y437550D01*
X19950Y435300D02*X22200D01*
X19200Y436050D02*X19950Y435300D01*
X19200Y437550D02*Y436050D01*
Y437550D02*X19950Y438300D01*
X21450D01*
X22200Y437550D01*
X19200Y436800D02*X22200D01*
Y437550D02*Y436800D01*
X28950Y438300D02*X29700Y437550D01*
X27450Y438300D02*X28950D01*
X26700Y437550D02*X27450Y438300D01*
X26700Y437550D02*Y436050D01*
X27450Y435300D01*
X29700Y438300D02*Y436050D01*
X30450Y435300D01*
X27450D02*X28950D01*
X29700Y436050D01*
X33000Y437550D02*Y435300D01*
Y437550D02*X33750Y438300D01*
X35250D01*
X32250D02*X33000Y437550D01*
X37800Y435300D02*X40050D01*
X37050Y436050D02*X37800Y435300D01*
X37050Y437550D02*Y436050D01*
Y437550D02*X37800Y438300D01*
X39300D01*
X40050Y437550D01*
X37050Y436800D02*X40050D01*
Y437550D02*Y436800D01*
X45300Y435300D02*X48300Y441300D01*
X44550D02*X48300D01*
X55800D02*Y435300D01*
X55050D02*X55800Y436050D01*
X53550Y435300D02*X55050D01*
X52800Y436050D02*X53550Y435300D01*
X52800Y437550D02*Y436050D01*
Y437550D02*X53550Y438300D01*
X55050D01*
X55800Y437550D01*
G54D111*X57600Y439800D02*Y439650D01*
G54D110*Y437550D02*Y435300D01*
X59850Y440550D02*Y435300D01*
Y440550D02*X60600Y441300D01*
X61350D01*
X59100Y438300D02*X60600D01*
X63600Y440550D02*Y435300D01*
Y440550D02*X64350Y441300D01*
X65100D01*
X62850Y438300D02*X64350D01*
X67350Y435300D02*X69600D01*
X66600Y436050D02*X67350Y435300D01*
X66600Y437550D02*Y436050D01*
Y437550D02*X67350Y438300D01*
X68850D01*
X69600Y437550D01*
X66600Y436800D02*X69600D01*
Y437550D02*Y436800D01*
X72150Y437550D02*Y435300D01*
Y437550D02*X72900Y438300D01*
X74400D01*
X71400D02*X72150Y437550D01*
X76950Y435300D02*X79200D01*
X76200Y436050D02*X76950Y435300D01*
X76200Y437550D02*Y436050D01*
Y437550D02*X76950Y438300D01*
X78450D01*
X79200Y437550D01*
X76200Y436800D02*X79200D01*
Y437550D02*Y436800D01*
X81750Y437550D02*Y435300D01*
Y437550D02*X82500Y438300D01*
X83250D01*
X84000Y437550D01*
Y435300D01*
X81000Y438300D02*X81750Y437550D01*
X86550Y441300D02*Y436050D01*
X87300Y435300D01*
X85800Y439050D02*X87300D01*
X94500Y441300D02*Y435300D01*
X93750D02*X94500Y436050D01*
X92250Y435300D02*X93750D01*
X91500Y436050D02*X92250Y435300D01*
X91500Y437550D02*Y436050D01*
Y437550D02*X92250Y438300D01*
X93750D01*
X94500Y437550D01*
X97050D02*Y435300D01*
Y437550D02*X97800Y438300D01*
X99300D01*
X96300D02*X97050Y437550D01*
G54D111*X101100Y439800D02*Y439650D01*
G54D110*Y437550D02*Y435300D01*
X102600Y441300D02*Y436050D01*
X103350Y435300D01*
X104850Y441300D02*Y436050D01*
X105600Y435300D01*
X110550D02*X112800D01*
X113550Y436050D01*
X112800Y436800D02*X113550Y436050D01*
X110550Y436800D02*X112800D01*
X109800Y437550D02*X110550Y436800D01*
X109800Y437550D02*X110550Y438300D01*
X112800D01*
X113550Y437550D01*
X109800Y436050D02*X110550Y435300D01*
G54D111*X115350Y439800D02*Y439650D01*
G54D110*Y437550D02*Y435300D01*
X116850Y438300D02*X119850D01*
X116850Y435300D02*X119850Y438300D01*
X116850Y435300D02*X119850D01*
X122400D02*X124650D01*
X121650Y436050D02*X122400Y435300D01*
X121650Y437550D02*Y436050D01*
Y437550D02*X122400Y438300D01*
X123900D01*
X124650Y437550D01*
X121650Y436800D02*X124650D01*
Y437550D02*Y436800D01*
X127200Y435300D02*X129450D01*
X130200Y436050D01*
X129450Y436800D02*X130200Y436050D01*
X127200Y436800D02*X129450D01*
X126450Y437550D02*X127200Y436800D01*
X126450Y437550D02*X127200Y438300D01*
X129450D01*
X130200Y437550D01*
X126450Y436050D02*X127200Y435300D01*
X134700Y438300D02*Y436050D01*
X135450Y435300D01*
X136950D01*
X137700Y436050D01*
Y438300D02*Y436050D01*
X140250Y435300D02*X142500D01*
X143250Y436050D01*
X142500Y436800D02*X143250Y436050D01*
X140250Y436800D02*X142500D01*
X139500Y437550D02*X140250Y436800D01*
X139500Y437550D02*X140250Y438300D01*
X142500D01*
X143250Y437550D01*
X139500Y436050D02*X140250Y435300D01*
X145800D02*X148050D01*
X145050Y436050D02*X145800Y435300D01*
X145050Y437550D02*Y436050D01*
Y437550D02*X145800Y438300D01*
X147300D01*
X148050Y437550D01*
X145050Y436800D02*X148050D01*
Y437550D02*Y436800D01*
X152850Y441300D02*Y435300D01*
X152100D02*X152850Y436050D01*
X150600Y435300D02*X152100D01*
X149850Y436050D02*X150600Y435300D01*
X149850Y437550D02*Y436050D01*
Y437550D02*X150600Y438300D01*
X152100D01*
X152850Y437550D01*
G54D111*X157350Y439800D02*Y439650D01*
G54D110*Y437550D02*Y435300D01*
X159600Y437550D02*Y435300D01*
Y437550D02*X160350Y438300D01*
X161100D01*
X161850Y437550D01*
Y435300D01*
X158850Y438300D02*X159600Y437550D01*
X167100Y441300D02*Y436050D01*
X167850Y435300D01*
X166350Y439050D02*X167850D01*
X169350Y441300D02*Y435300D01*
Y437550D02*X170100Y438300D01*
X171600D01*
X172350Y437550D01*
Y435300D01*
G54D111*X174150Y439800D02*Y439650D01*
G54D110*Y437550D02*Y435300D01*
X176400D02*X178650D01*
X179400Y436050D01*
X178650Y436800D02*X179400Y436050D01*
X176400Y436800D02*X178650D01*
X175650Y437550D02*X176400Y436800D01*
X175650Y437550D02*X176400Y438300D01*
X178650D01*
X179400Y437550D01*
X175650Y436050D02*X176400Y435300D01*
X183900Y441300D02*Y436050D01*
X184650Y435300D01*
X188400Y438300D02*X189150Y437550D01*
X186900Y438300D02*X188400D01*
X186150Y437550D02*X186900Y438300D01*
X186150Y437550D02*Y436050D01*
X186900Y435300D01*
X189150Y438300D02*Y436050D01*
X189900Y435300D01*
X186900D02*X188400D01*
X189150Y436050D01*
X191700Y438300D02*Y436050D01*
X192450Y435300D01*
X194700Y438300D02*Y433800D01*
X193950Y433050D02*X194700Y433800D01*
X192450Y433050D02*X193950D01*
X191700Y433800D02*X192450Y433050D01*
Y435300D02*X193950D01*
X194700Y436050D01*
X196500Y437550D02*Y436050D01*
Y437550D02*X197250Y438300D01*
X198750D01*
X199500Y437550D01*
Y436050D01*
X198750Y435300D02*X199500Y436050D01*
X197250Y435300D02*X198750D01*
X196500Y436050D02*X197250Y435300D01*
X201300Y438300D02*Y436050D01*
X202050Y435300D01*
X203550D01*
X204300Y436050D01*
Y438300D02*Y436050D01*
X206850Y441300D02*Y436050D01*
X207600Y435300D01*
X206100Y439050D02*X207600D01*
X209100Y433800D02*X210600Y435300D01*
X215100Y440100D02*X216300Y441300D01*
Y435300D01*
X215100D02*X217350D01*
X219150Y436050D02*X219900Y435300D01*
X219150Y440550D02*Y436050D01*
Y440550D02*X219900Y441300D01*
X221400D01*
X222150Y440550D01*
Y436050D01*
X221400Y435300D02*X222150Y436050D01*
X219900Y435300D02*X221400D01*
X219150Y436800D02*X222150Y439800D01*
X224700Y435300D02*X227700Y441300D01*
X223950D02*X227700D01*
X232200D02*Y435300D01*
Y437550D02*X232950Y438300D01*
X234450D01*
X235200Y437550D01*
Y435300D01*
X237000Y437550D02*Y436050D01*
Y437550D02*X237750Y438300D01*
X239250D01*
X240000Y437550D01*
Y436050D01*
X239250Y435300D02*X240000Y436050D01*
X237750Y435300D02*X239250D01*
X237000Y436050D02*X237750Y435300D01*
X241800Y441300D02*Y436050D01*
X242550Y435300D01*
X244800D02*X247050D01*
X244050Y436050D02*X244800Y435300D01*
X244050Y437550D02*Y436050D01*
Y437550D02*X244800Y438300D01*
X246300D01*
X247050Y437550D01*
X244050Y436800D02*X247050D01*
Y437550D02*Y436800D01*
X249600Y435300D02*X251850D01*
X252600Y436050D01*
X251850Y436800D02*X252600Y436050D01*
X249600Y436800D02*X251850D01*
X248850Y437550D02*X249600Y436800D01*
X248850Y437550D02*X249600Y438300D01*
X251850D01*
X252600Y437550D01*
X248850Y436050D02*X249600Y435300D01*
X257850Y441300D02*Y436050D01*
X258600Y435300D01*
X257100Y439050D02*X258600D01*
X260100Y437550D02*Y436050D01*
Y437550D02*X260850Y438300D01*
X262350D01*
X263100Y437550D01*
Y436050D01*
X262350Y435300D02*X263100Y436050D01*
X260850Y435300D02*X262350D01*
X260100Y436050D02*X260850Y435300D01*
X265650Y441300D02*Y436050D01*
X266400Y435300D01*
X264900Y439050D02*X266400D01*
X270150Y438300D02*X270900Y437550D01*
X268650Y438300D02*X270150D01*
X267900Y437550D02*X268650Y438300D01*
X267900Y437550D02*Y436050D01*
X268650Y435300D01*
X270900Y438300D02*Y436050D01*
X271650Y435300D01*
X268650D02*X270150D01*
X270900Y436050D01*
X273450Y441300D02*Y436050D01*
X274200Y435300D01*
G54D112*X15100Y307800D02*X254400D01*
X3700Y0D02*X265800D01*
X0Y114500D02*X23800D01*
X0Y89500D02*X23800D01*
X269500Y114500D02*X245700D01*
X269500Y89500D02*X245700D01*
X98500Y167800D02*X178000D01*
Y94800D01*
X98500D01*
Y167800D01*
X3703Y-10D02*G75*G02X56Y89502I1403197J102010D01*G01*
X56Y114498D02*G75*G02X15132Y307791I1406844J-12498D01*G01*
X265797Y-10D02*G75*G03X269444Y89502I-1403197J102010D01*G01*
X269444Y114498D02*G75*G03X254368Y307791I-1406844J-12498D01*G01*
X23800Y89500D02*G75*G03X23800Y114500I0J12500D01*G01*
X245700Y89500D02*G75*G02X245700Y114500I0J12500D01*G01*
G54D113*X119000Y134300D02*X120000D01*
X119500D02*Y130300D01*
X119000D02*X120000D01*
X121700Y131800D02*Y130300D01*
Y131800D02*X122200Y132300D01*
X122700D01*
X123200Y131800D01*
Y130300D01*
X121200Y132300D02*X121700Y131800D01*
X124900Y134300D02*Y130800D01*
X125400Y130300D01*
X124400Y132800D02*X125400D01*
X126900Y130300D02*X128400D01*
X126400Y130800D02*X126900Y130300D01*
X126400Y131800D02*Y130800D01*
Y131800D02*X126900Y132300D01*
X127900D01*
X128400Y131800D01*
X126400Y131300D02*X128400D01*
Y131800D02*Y131300D01*
X130100Y131800D02*Y130300D01*
Y131800D02*X130600Y132300D01*
X131600D01*
X129600D02*X130100Y131800D01*
G54D114*X132800Y133300D02*Y133200D01*
G54D113*Y131800D02*Y130300D01*
X133800Y131800D02*Y130800D01*
Y131800D02*X134300Y132300D01*
X135300D01*
X135800Y131800D01*
Y130800D01*
X135300Y130300D02*X135800Y130800D01*
X134300Y130300D02*X135300D01*
X133800Y130800D02*X134300Y130300D01*
X137500Y131800D02*Y130300D01*
Y131800D02*X138000Y132300D01*
X139000D01*
X137000D02*X137500Y131800D01*
X142700Y130300D02*X144000D01*
X142000Y131000D02*X142700Y130300D01*
X142000Y133600D02*Y131000D01*
Y133600D02*X142700Y134300D01*
X144000D01*
X145200Y132300D02*Y130800D01*
X145700Y130300D01*
X146700D01*
X147200Y130800D01*
Y132300D02*Y130800D01*
X148900Y134300D02*Y130800D01*
X149400Y130300D01*
X148400Y132800D02*X149400D01*
X150400Y131800D02*Y130800D01*
Y131800D02*X150900Y132300D01*
X151900D01*
X152400Y131800D01*
Y130800D01*
X151900Y130300D02*X152400Y130800D01*
X150900Y130300D02*X151900D01*
X150400Y130800D02*X150900Y130300D01*
X153600Y132300D02*Y130800D01*
X154100Y130300D01*
X155100D01*
X155600Y130800D01*
Y132300D02*Y130800D01*
X157300Y134300D02*Y130800D01*
X157800Y130300D01*
X156800Y132800D02*X157800D01*
G54D110*X48425Y-9500D02*X51425D01*
X52175Y-8750D01*
Y-6950D02*Y-8750D01*
X51425Y-6200D02*X52175Y-6950D01*
X49175Y-6200D02*X51425D01*
X49175Y-3500D02*Y-9500D01*
X48425Y-3500D02*X51425D01*
X52175Y-4250D01*
Y-5450D01*
X51425Y-6200D02*X52175Y-5450D01*
X53975Y-7250D02*Y-8750D01*
Y-7250D02*X54725Y-6500D01*
X56225D01*
X56975Y-7250D01*
Y-8750D01*
X56225Y-9500D02*X56975Y-8750D01*
X54725Y-9500D02*X56225D01*
X53975Y-8750D02*X54725Y-9500D01*
X61025Y-6500D02*X61775Y-7250D01*
X59525Y-6500D02*X61025D01*
X58775Y-7250D02*X59525Y-6500D01*
X58775Y-7250D02*Y-8750D01*
X59525Y-9500D01*
X61775Y-6500D02*Y-8750D01*
X62525Y-9500D01*
X59525D02*X61025D01*
X61775Y-8750D01*
X65075Y-7250D02*Y-9500D01*
Y-7250D02*X65825Y-6500D01*
X67325D01*
X64325D02*X65075Y-7250D01*
X72125Y-3500D02*Y-9500D01*
X71375D02*X72125Y-8750D01*
X69875Y-9500D02*X71375D01*
X69125Y-8750D02*X69875Y-9500D01*
X69125Y-7250D02*Y-8750D01*
Y-7250D02*X69875Y-6500D01*
X71375D01*
X72125Y-7250D01*
X76625D02*Y-8750D01*
Y-7250D02*X77375Y-6500D01*
X78875D01*
X79625Y-7250D01*
Y-8750D01*
X78875Y-9500D02*X79625Y-8750D01*
X77375Y-9500D02*X78875D01*
X76625Y-8750D02*X77375Y-9500D01*
X81425Y-6500D02*Y-8750D01*
X82175Y-9500D01*
X83675D01*
X84425Y-8750D01*
Y-6500D02*Y-8750D01*
X86975Y-3500D02*Y-8750D01*
X87725Y-9500D01*
X86225Y-5750D02*X87725D01*
X89225Y-3500D02*Y-8750D01*
X89975Y-9500D01*
G54D111*X91475Y-5000D02*Y-5150D01*
G54D110*Y-7250D02*Y-9500D01*
X93725Y-7250D02*Y-9500D01*
Y-7250D02*X94475Y-6500D01*
X95225D01*
X95975Y-7250D01*
Y-9500D01*
X92975Y-6500D02*X93725Y-7250D01*
X98525Y-9500D02*X100775D01*
X97775Y-8750D02*X98525Y-9500D01*
X97775Y-7250D02*Y-8750D01*
Y-7250D02*X98525Y-6500D01*
X100025D01*
X100775Y-7250D01*
X97775Y-8000D02*X100775D01*
Y-7250D02*Y-8000D01*
G54D111*X105275Y-5000D02*Y-5150D01*
G54D110*Y-7250D02*Y-9500D01*
X107525D02*X109775D01*
X110525Y-8750D01*
X109775Y-8000D02*X110525Y-8750D01*
X107525Y-8000D02*X109775D01*
X106775Y-7250D02*X107525Y-8000D01*
X106775Y-7250D02*X107525Y-6500D01*
X109775D01*
X110525Y-7250D01*
X106775Y-8750D02*X107525Y-9500D01*
X115775Y-3500D02*Y-8750D01*
X116525Y-9500D01*
X115025Y-5750D02*X116525D01*
X118025Y-3500D02*Y-9500D01*
Y-7250D02*X118775Y-6500D01*
X120275D01*
X121025Y-7250D01*
Y-9500D01*
X123575D02*X125825D01*
X122825Y-8750D02*X123575Y-9500D01*
X122825Y-7250D02*Y-8750D01*
Y-7250D02*X123575Y-6500D01*
X125075D01*
X125825Y-7250D01*
X122825Y-8000D02*X125825D01*
Y-7250D02*Y-8000D01*
X131075Y-6500D02*X133325D01*
X130325Y-7250D02*X131075Y-6500D01*
X130325Y-7250D02*Y-8750D01*
X131075Y-9500D01*
X133325D01*
X135875D02*X138125D01*
X135125Y-8750D02*X135875Y-9500D01*
X135125Y-7250D02*Y-8750D01*
Y-7250D02*X135875Y-6500D01*
X137375D01*
X138125Y-7250D01*
X135125Y-8000D02*X138125D01*
Y-7250D02*Y-8000D01*
X140675Y-7250D02*Y-9500D01*
Y-7250D02*X141425Y-6500D01*
X142175D01*
X142925Y-7250D01*
Y-9500D01*
X139925Y-6500D02*X140675Y-7250D01*
X145475Y-3500D02*Y-8750D01*
X146225Y-9500D01*
X144725Y-5750D02*X146225D01*
X148475Y-9500D02*X150725D01*
X147725Y-8750D02*X148475Y-9500D01*
X147725Y-7250D02*Y-8750D01*
Y-7250D02*X148475Y-6500D01*
X149975D01*
X150725Y-7250D01*
X147725Y-8000D02*X150725D01*
Y-7250D02*Y-8000D01*
X153275Y-7250D02*Y-9500D01*
Y-7250D02*X154025Y-6500D01*
X155525D01*
X152525D02*X153275Y-7250D01*
X157325Y-3500D02*Y-8750D01*
X158075Y-9500D01*
G54D111*X159575Y-5000D02*Y-5150D01*
G54D110*Y-7250D02*Y-9500D01*
X161825Y-7250D02*Y-9500D01*
Y-7250D02*X162575Y-6500D01*
X163325D01*
X164075Y-7250D01*
Y-9500D01*
X161075Y-6500D02*X161825Y-7250D01*
X166625Y-9500D02*X168875D01*
X165875Y-8750D02*X166625Y-9500D01*
X165875Y-7250D02*Y-8750D01*
Y-7250D02*X166625Y-6500D01*
X168125D01*
X168875Y-7250D01*
X165875Y-8000D02*X168875D01*
Y-7250D02*Y-8000D01*
X173375Y-7250D02*Y-8750D01*
Y-7250D02*X174125Y-6500D01*
X175625D01*
X176375Y-7250D01*
Y-8750D01*
X175625Y-9500D02*X176375Y-8750D01*
X174125Y-9500D02*X175625D01*
X173375Y-8750D02*X174125Y-9500D01*
X178925Y-4250D02*Y-9500D01*
Y-4250D02*X179675Y-3500D01*
X180425D01*
X178175Y-6500D02*X179675D01*
X185375Y-3500D02*Y-8750D01*
X186125Y-9500D01*
X184625Y-5750D02*X186125D01*
X187625Y-3500D02*Y-9500D01*
Y-7250D02*X188375Y-6500D01*
X189875D01*
X190625Y-7250D01*
Y-9500D01*
G54D111*X192425Y-5000D02*Y-5150D01*
G54D110*Y-7250D02*Y-9500D01*
X194675D02*X196925D01*
X197675Y-8750D01*
X196925Y-8000D02*X197675Y-8750D01*
X194675Y-8000D02*X196925D01*
X193925Y-7250D02*X194675Y-8000D01*
X193925Y-7250D02*X194675Y-6500D01*
X196925D01*
X197675Y-7250D01*
X193925Y-8750D02*X194675Y-9500D01*
X202925Y-7250D02*Y-11750D01*
X202175Y-6500D02*X202925Y-7250D01*
X203675Y-6500D01*
X205175D01*
X205925Y-7250D01*
Y-8750D01*
X205175Y-9500D02*X205925Y-8750D01*
X203675Y-9500D02*X205175D01*
X202925Y-8750D02*X203675Y-9500D01*
X209975Y-6500D02*X210725Y-7250D01*
X208475Y-6500D02*X209975D01*
X207725Y-7250D02*X208475Y-6500D01*
X207725Y-7250D02*Y-8750D01*
X208475Y-9500D01*
X210725Y-6500D02*Y-8750D01*
X211475Y-9500D01*
X208475D02*X209975D01*
X210725Y-8750D01*
X214025Y-3500D02*Y-8750D01*
X214775Y-9500D01*
X213275Y-5750D02*X214775D01*
X216275Y-3500D02*Y-9500D01*
Y-7250D02*X217025Y-6500D01*
X218525D01*
X219275Y-7250D01*
Y-9500D01*
X200750Y336300D02*Y330300D01*
X202700Y336300D02*X203750Y335250D01*
Y331350D01*
X202700Y330300D02*X203750Y331350D01*
X200000Y330300D02*X202700D01*
X200000Y336300D02*X202700D01*
X207800Y333300D02*X208550Y332550D01*
X206300Y333300D02*X207800D01*
X205550Y332550D02*X206300Y333300D01*
X205550Y332550D02*Y331050D01*
X206300Y330300D01*
X208550Y333300D02*Y331050D01*
X209300Y330300D01*
X206300D02*X207800D01*
X208550Y331050D01*
X211850Y336300D02*Y331050D01*
X212600Y330300D01*
X211100Y334050D02*X212600D01*
X214850Y330300D02*X217100D01*
X214100Y331050D02*X214850Y330300D01*
X214100Y332550D02*Y331050D01*
Y332550D02*X214850Y333300D01*
X216350D01*
X217100Y332550D01*
X214100Y331800D02*X217100D01*
Y332550D02*Y331800D01*
X218900Y334050D02*X219650D01*
X218900Y332550D02*X219650D01*
X224150Y336300D02*X227150D01*
X225650D02*Y330300D01*
X228950Y336300D02*Y330300D01*
Y332550D02*X229700Y333300D01*
X231200D01*
X231950Y332550D01*
Y330300D01*
X233750Y333300D02*Y331050D01*
X234500Y330300D01*
X236000D01*
X236750Y331050D01*
Y333300D02*Y331050D01*
X241250D02*X242000Y330300D01*
X241250Y335550D02*Y331050D01*
Y335550D02*X242000Y336300D01*
X243500D01*
X244250Y335550D01*
Y331050D01*
X243500Y330300D02*X244250Y331050D01*
X242000Y330300D02*X243500D01*
X241250Y331800D02*X244250Y334800D01*
X246800Y330300D02*X249050Y333300D01*
Y335550D02*Y333300D01*
X248300Y336300D02*X249050Y335550D01*
X246800Y336300D02*X248300D01*
X246050Y335550D02*X246800Y336300D01*
X246050Y335550D02*Y334050D01*
X246800Y333300D01*
X249050D01*
X254600Y336300D02*X255800D01*
Y331050D01*
X255050Y330300D02*X255800Y331050D01*
X254300Y330300D02*X255050D01*
X253550Y331050D02*X254300Y330300D01*
X253550Y331800D02*Y331050D01*
X257600Y333300D02*Y331050D01*
X258350Y330300D01*
X259850D01*
X260600Y331050D01*
Y333300D02*Y331050D01*
X262400Y336300D02*Y331050D01*
X263150Y330300D01*
X267350Y335550D02*X268100Y336300D01*
X270350D01*
X271100Y335550D01*
Y334050D01*
X267350Y330300D02*X271100Y334050D01*
X267350Y330300D02*X271100D01*
X272900Y331050D02*X273650Y330300D01*
X272900Y335550D02*Y331050D01*
Y335550D02*X273650Y336300D01*
X275150D01*
X275900Y335550D01*
Y331050D01*
X275150Y330300D02*X275900Y331050D01*
X273650Y330300D02*X275150D01*
X272900Y331800D02*X275900Y334800D01*
X277700Y335100D02*X278900Y336300D01*
Y330300D01*
X277700D02*X279950D01*
X281750Y336300D02*X284750D01*
X281750D02*Y333300D01*
X282500Y334050D01*
X284000D01*
X284750Y333300D01*
Y331050D01*
X284000Y330300D02*X284750Y331050D01*
X282500Y330300D02*X284000D01*
X281750Y331050D02*X282500Y330300D01*
X289250Y331050D02*X290000Y330300D01*
X289250Y335550D02*Y331050D01*
Y335550D02*X290000Y336300D01*
X291500D01*
X292250Y335550D01*
Y331050D01*
X291500Y330300D02*X292250Y331050D01*
X290000Y330300D02*X291500D01*
X289250Y331800D02*X292250Y334800D01*
X294050Y335550D02*X294800Y336300D01*
X297050D01*
X297800Y335550D01*
Y334050D01*
X294050Y330300D02*X297800Y334050D01*
X294050Y330300D02*X297800D01*
X299600Y334050D02*X300350D01*
X299600Y332550D02*X300350D01*
X302150Y331050D02*X302900Y330300D01*
X302150Y335550D02*Y331050D01*
Y335550D02*X302900Y336300D01*
X304400D01*
X305150Y335550D01*
Y331050D01*
X304400Y330300D02*X305150Y331050D01*
X302900Y330300D02*X304400D01*
X302150Y331800D02*X305150Y334800D01*
X309200Y336300D02*X309950Y335550D01*
X307700Y336300D02*X309200D01*
X306950Y335550D02*X307700Y336300D01*
X306950Y335550D02*Y331050D01*
X307700Y330300D01*
X309200Y333600D02*X309950Y332850D01*
X306950Y333600D02*X309200D01*
X307700Y330300D02*X309200D01*
X309950Y331050D01*
Y332850D02*Y331050D01*
X311750Y334050D02*X312500D01*
X311750Y332550D02*X312500D01*
X314300Y335550D02*X315050Y336300D01*
X316550D01*
X317300Y335550D01*
X316550Y330300D02*X317300Y331050D01*
X315050Y330300D02*X316550D01*
X314300Y331050D02*X315050Y330300D01*
Y333600D02*X316550D01*
X317300Y335550D02*Y334350D01*
Y332850D02*Y331050D01*
Y332850D02*X316550Y333600D01*
X317300Y334350D02*X316550Y333600D01*
X319100Y332550D02*X322100Y336300D01*
X319100Y332550D02*X322850D01*
X322100Y336300D02*Y330300D01*
X327350Y334800D02*Y330300D01*
Y334800D02*X328400Y336300D01*
X330050D01*
X331100Y334800D01*
Y330300D01*
X327350Y333300D02*X331100D01*
X332900Y336300D02*Y330300D01*
Y336300D02*X335150Y333300D01*
X337400Y336300D01*
Y330300D01*
X344900Y336300D02*X345650Y335550D01*
X342650Y336300D02*X344900D01*
X341900Y335550D02*X342650Y336300D01*
X341900Y335550D02*Y331050D01*
X342650Y330300D01*
X344900D01*
X345650Y331050D01*
Y332550D02*Y331050D01*
X344900Y333300D02*X345650Y332550D01*
X343400Y333300D02*X344900D01*
X347450Y336300D02*Y330300D01*
Y336300D02*X349700Y333300D01*
X351950Y336300D01*
Y330300D01*
X353750Y336300D02*X356750D01*
X355250D02*Y330300D01*
X361250Y336300D02*Y331050D01*
X362000Y330300D01*
X363500D01*
X364250Y331050D01*
Y336300D02*Y331050D01*
X366050Y336300D02*X369050D01*
X367550D02*Y330300D01*
X371900D02*X373850D01*
X370850Y331350D02*X371900Y330300D01*
X370850Y335250D02*Y331350D01*
Y335250D02*X371900Y336300D01*
X373850D01*
X200000Y349800D02*Y345300D01*
Y349800D02*X201050Y351300D01*
X202700D01*
X203750Y349800D01*
Y345300D01*
X200000Y348300D02*X203750D01*
X205550D02*Y346050D01*
X206300Y345300D01*
X207800D01*
X208550Y346050D01*
Y348300D02*Y346050D01*
X211100Y351300D02*Y346050D01*
X211850Y345300D01*
X210350Y349050D02*X211850D01*
X213350Y351300D02*Y345300D01*
Y347550D02*X214100Y348300D01*
X215600D01*
X216350Y347550D01*
Y345300D01*
X218150Y347550D02*Y346050D01*
Y347550D02*X218900Y348300D01*
X220400D01*
X221150Y347550D01*
Y346050D01*
X220400Y345300D02*X221150Y346050D01*
X218900Y345300D02*X220400D01*
X218150Y346050D02*X218900Y345300D01*
X223700Y347550D02*Y345300D01*
Y347550D02*X224450Y348300D01*
X225950D01*
X222950D02*X223700Y347550D01*
X227750Y349050D02*X228500D01*
X227750Y347550D02*X228500D01*
X233000Y351300D02*Y345300D01*
Y351300D02*X235250Y348300D01*
X237500Y351300D01*
Y345300D01*
G54D111*X239300Y349800D02*Y349650D01*
G54D110*Y347550D02*Y345300D01*
X241550Y348300D02*X243800D01*
X240800Y347550D02*X241550Y348300D01*
X240800Y347550D02*Y346050D01*
X241550Y345300D01*
X243800D01*
X245600Y351300D02*Y345300D01*
Y347550D02*X246350Y348300D01*
X247850D01*
X248600Y347550D01*
Y345300D01*
X252650Y348300D02*X253400Y347550D01*
X251150Y348300D02*X252650D01*
X250400Y347550D02*X251150Y348300D01*
X250400Y347550D02*Y346050D01*
X251150Y345300D01*
X253400Y348300D02*Y346050D01*
X254150Y345300D01*
X251150D02*X252650D01*
X253400Y346050D01*
X256700Y345300D02*X258950D01*
X255950Y346050D02*X256700Y345300D01*
X255950Y347550D02*Y346050D01*
Y347550D02*X256700Y348300D01*
X258200D01*
X258950Y347550D01*
X255950Y346800D02*X258950D01*
Y347550D02*Y346800D01*
X260750Y351300D02*Y346050D01*
X261500Y345300D01*
X266450Y351300D02*Y345300D01*
X265700Y351300D02*X268700D01*
X269450Y350550D01*
Y349050D01*
X268700Y348300D02*X269450Y349050D01*
X266450Y348300D02*X268700D01*
X272000Y345300D02*X274250D01*
X271250Y346050D02*X272000Y345300D01*
X271250Y347550D02*Y346050D01*
Y347550D02*X272000Y348300D01*
X273500D01*
X274250Y347550D01*
X271250Y346800D02*X274250D01*
Y347550D02*Y346800D01*
X276800Y351300D02*Y346050D01*
X277550Y345300D01*
X276050Y349050D02*X277550D01*
X279800Y345300D02*X282050D01*
X279050Y346050D02*X279800Y345300D01*
X279050Y347550D02*Y346050D01*
Y347550D02*X279800Y348300D01*
X281300D01*
X282050Y347550D01*
X279050Y346800D02*X282050D01*
Y347550D02*Y346800D01*
X284600Y347550D02*Y345300D01*
Y347550D02*X285350Y348300D01*
X286850D01*
X283850D02*X284600Y347550D01*
X289400Y345300D02*X291650D01*
X292400Y346050D01*
X291650Y346800D02*X292400Y346050D01*
X289400Y346800D02*X291650D01*
X288650Y347550D02*X289400Y346800D01*
X288650Y347550D02*X289400Y348300D01*
X291650D01*
X292400Y347550D01*
X288650Y346050D02*X289400Y345300D01*
X294950D02*X297200D01*
X294200Y346050D02*X294950Y345300D01*
X294200Y347550D02*Y346050D01*
Y347550D02*X294950Y348300D01*
X296450D01*
X297200Y347550D01*
X294200Y346800D02*X297200D01*
Y347550D02*Y346800D01*
X299750Y347550D02*Y345300D01*
Y347550D02*X300500Y348300D01*
X301250D01*
X302000Y347550D01*
Y345300D01*
X299000Y348300D02*X299750Y347550D01*
X200000Y366300D02*X203000D01*
X201500D02*Y360300D01*
G54D111*X204800Y364800D02*Y364650D01*
G54D110*Y362550D02*Y360300D01*
X207050Y366300D02*Y361050D01*
X207800Y360300D01*
X206300Y364050D02*X207800D01*
X209300Y366300D02*Y361050D01*
X210050Y360300D01*
X212300D02*X214550D01*
X211550Y361050D02*X212300Y360300D01*
X211550Y362550D02*Y361050D01*
Y362550D02*X212300Y363300D01*
X213800D01*
X214550Y362550D01*
X211550Y361800D02*X214550D01*
Y362550D02*Y361800D01*
X216350Y364050D02*X217100D01*
X216350Y362550D02*X217100D01*
X221600Y361050D02*X222350Y360300D01*
X221600Y365550D02*X222350Y366300D01*
X221600Y365550D02*Y361050D01*
X224150Y363300D02*Y361050D01*
X224900Y360300D01*
X226400D01*
X227150Y361050D01*
Y363300D02*Y361050D01*
X229700Y362550D02*Y360300D01*
Y362550D02*X230450Y363300D01*
X231200D01*
X231950Y362550D01*
Y360300D01*
X228950Y363300D02*X229700Y362550D01*
X233750Y366300D02*Y360300D01*
Y362550D02*X236000Y360300D01*
X233750Y362550D02*X235250Y364050D01*
X238550Y362550D02*Y360300D01*
Y362550D02*X239300Y363300D01*
X240050D01*
X240800Y362550D01*
Y360300D01*
X237800Y363300D02*X238550Y362550D01*
X242600D02*Y361050D01*
Y362550D02*X243350Y363300D01*
X244850D01*
X245600Y362550D01*
Y361050D01*
X244850Y360300D02*X245600Y361050D01*
X243350Y360300D02*X244850D01*
X242600Y361050D02*X243350Y360300D01*
X247400Y363300D02*Y361050D01*
X248150Y360300D01*
X248900D01*
X249650Y361050D01*
Y363300D02*Y361050D01*
X250400Y360300D01*
X251150D01*
X251900Y361050D01*
Y363300D02*Y361050D01*
X254450Y362550D02*Y360300D01*
Y362550D02*X255200Y363300D01*
X255950D01*
X256700Y362550D01*
Y360300D01*
X253700Y363300D02*X254450Y362550D01*
X258500Y366300D02*X259250Y365550D01*
Y361050D01*
X258500Y360300D02*X259250Y361050D01*
X263750Y363300D02*X266750D01*
X271250Y366300D02*Y360300D01*
Y366300D02*X274250D01*
X271250Y363600D02*X273500D01*
X278300Y363300D02*X279050Y362550D01*
X276800Y363300D02*X278300D01*
X276050Y362550D02*X276800Y363300D01*
X276050Y362550D02*Y361050D01*
X276800Y360300D01*
X279050Y363300D02*Y361050D01*
X279800Y360300D01*
X276800D02*X278300D01*
X279050Y361050D01*
X281600Y366300D02*Y360300D01*
Y361050D02*X282350Y360300D01*
X283850D01*
X284600Y361050D01*
Y362550D02*Y361050D01*
X283850Y363300D02*X284600Y362550D01*
X282350Y363300D02*X283850D01*
X281600Y362550D02*X282350Y363300D01*
X287150Y362550D02*Y360300D01*
Y362550D02*X287900Y363300D01*
X289400D01*
X286400D02*X287150Y362550D01*
G54D111*X291200Y364800D02*Y364650D01*
G54D110*Y362550D02*Y360300D01*
X293450Y363300D02*X295700D01*
X292700Y362550D02*X293450Y363300D01*
X292700Y362550D02*Y361050D01*
X293450Y360300D01*
X295700D01*
X299750Y363300D02*X300500Y362550D01*
X298250Y363300D02*X299750D01*
X297500Y362550D02*X298250Y363300D01*
X297500Y362550D02*Y361050D01*
X298250Y360300D01*
X300500Y363300D02*Y361050D01*
X301250Y360300D01*
X298250D02*X299750D01*
X300500Y361050D01*
X303800Y366300D02*Y361050D01*
X304550Y360300D01*
X303050Y364050D02*X304550D01*
G54D111*X306050Y364800D02*Y364650D01*
G54D110*Y362550D02*Y360300D01*
X307550Y362550D02*Y361050D01*
Y362550D02*X308300Y363300D01*
X309800D01*
X310550Y362550D01*
Y361050D01*
X309800Y360300D02*X310550Y361050D01*
X308300Y360300D02*X309800D01*
X307550Y361050D02*X308300Y360300D01*
X313100Y362550D02*Y360300D01*
Y362550D02*X313850Y363300D01*
X314600D01*
X315350Y362550D01*
Y360300D01*
X312350Y363300D02*X313100Y362550D01*
X320600Y366300D02*Y360300D01*
X322550Y366300D02*X323600Y365250D01*
Y361350D01*
X322550Y360300D02*X323600Y361350D01*
X319850Y360300D02*X322550D01*
X319850Y366300D02*X322550D01*
X326150Y362550D02*Y360300D01*
Y362550D02*X326900Y363300D01*
X328400D01*
X325400D02*X326150Y362550D01*
X332450Y363300D02*X333200Y362550D01*
X330950Y363300D02*X332450D01*
X330200Y362550D02*X330950Y363300D01*
X330200Y362550D02*Y361050D01*
X330950Y360300D01*
X333200Y363300D02*Y361050D01*
X333950Y360300D01*
X330950D02*X332450D01*
X333200Y361050D01*
X335750Y363300D02*Y361050D01*
X336500Y360300D01*
X337250D01*
X338000Y361050D01*
Y363300D02*Y361050D01*
X338750Y360300D01*
X339500D01*
X340250Y361050D01*
Y363300D02*Y361050D01*
G54D111*X342050Y364800D02*Y364650D01*
G54D110*Y362550D02*Y360300D01*
X344300Y362550D02*Y360300D01*
Y362550D02*X345050Y363300D01*
X345800D01*
X346550Y362550D01*
Y360300D01*
X343550Y363300D02*X344300Y362550D01*
X350600Y363300D02*X351350Y362550D01*
X349100Y363300D02*X350600D01*
X348350Y362550D02*X349100Y363300D01*
X348350Y362550D02*Y361050D01*
X349100Y360300D01*
X350600D01*
X351350Y361050D01*
X348350Y358800D02*X349100Y358050D01*
X350600D01*
X351350Y358800D01*
Y363300D02*Y358800D01*
M02*
