G04 start of page 11 for group -4015 idx -4015 *
G04 Title: (unknown), toppaste *
G04 Creator: pcb 20110918 *
G04 CreationDate: Thu 09 Jul 2015 02:06:34 AM GMT UTC *
G04 For: petersen *
G04 Format: Gerber/RS-274X *
G04 PCB-Dimensions: 269500 307800 *
G04 PCB-Coordinate-Origin: lower left *
%MOIN*%
%FSLAX25Y25*%
%LNTOPPASTE*%
%ADD108R,0.0350X0.0350*%
%ADD107C,0.0001*%
%ADD106R,0.0230X0.0230*%
%ADD105R,0.0197X0.0197*%
%ADD104R,0.0098X0.0098*%
%ADD103R,0.0787X0.0787*%
%ADD102R,0.0157X0.0157*%
%ADD101R,0.0430X0.0430*%
%ADD100R,0.0700X0.0700*%
%ADD99R,0.0240X0.0240*%
%ADD98R,0.0340X0.0340*%
%ADD97R,0.0440X0.0440*%
%ADD96R,0.0512X0.0512*%
G54D96*X218043Y18693D02*Y17907D01*
X210957Y18693D02*Y17907D01*
G54D97*X93000Y48350D02*Y43150D01*
Y14450D02*Y9250D01*
X83000Y48350D02*Y43150D01*
Y14450D02*Y9250D01*
X73000Y48350D02*Y43150D01*
Y14450D02*Y9250D01*
X63000Y48350D02*Y43150D01*
Y14450D02*Y9250D01*
X53000Y48350D02*Y43150D01*
Y14450D02*Y9250D01*
G54D98*X211043Y43143D02*X211643D01*
X211043Y35343D02*X211643D01*
X219243Y39243D02*X219843D01*
G54D99*X215600Y101900D02*Y100300D01*
X219500Y101900D02*Y100300D01*
X223400Y101900D02*Y100300D01*
Y110100D02*Y108500D01*
X219500Y110100D02*Y108500D01*
X215600Y110100D02*Y108500D01*
G54D100*X208500Y121300D02*X229000D01*
X208500Y131300D02*X229000D01*
X208500Y141300D02*X229000D01*
G54D101*X61050Y252700D02*Y251100D01*
X66950Y252700D02*Y251100D01*
X61050Y264500D02*Y262900D01*
X66950Y264500D02*Y262900D01*
G54D96*X69107Y152757D02*X69893D01*
X69107Y159843D02*X69893D01*
X59607Y152757D02*X60393D01*
X59607Y159843D02*X60393D01*
G54D102*X48977Y107734D02*Y103308D01*
X52126Y107734D02*Y103308D01*
X55276Y107734D02*Y103308D01*
X58425Y107734D02*Y103308D01*
X61575Y107734D02*Y103308D01*
X64725Y107734D02*Y103308D01*
X67874Y107734D02*Y103308D01*
X71024Y107734D02*Y103308D01*
X76566Y113277D02*X80992D01*
X76566Y116426D02*X80992D01*
X76566Y119576D02*X80992D01*
X76566Y122725D02*X80992D01*
X76566Y125875D02*X80992D01*
X76566Y129025D02*X80992D01*
X76566Y132174D02*X80992D01*
X76566Y135324D02*X80992D01*
X71023Y145292D02*Y140866D01*
X67874Y145292D02*Y140866D01*
X64724Y145292D02*Y140866D01*
X61575Y145292D02*Y140866D01*
X58425Y145292D02*Y140866D01*
X55275Y145292D02*Y140866D01*
X52126Y145292D02*Y140866D01*
X48976Y145292D02*Y140866D01*
X39008Y135323D02*X43434D01*
X39008Y132174D02*X43434D01*
X39008Y129024D02*X43434D01*
X39008Y125875D02*X43434D01*
X39008Y122725D02*X43434D01*
X39008Y119575D02*X43434D01*
X39008Y116426D02*X43434D01*
X39008Y113276D02*X43434D01*
G54D103*X36409Y74800D02*X52157D01*
X71843D02*X87591D01*
G54D96*X73543Y91693D02*Y90907D01*
X66457Y91693D02*Y90907D01*
X50457Y91693D02*Y90907D01*
X57543Y91693D02*Y90907D01*
X80457Y103693D02*Y102907D01*
X87543Y103693D02*Y102907D01*
X121043Y238193D02*Y237407D01*
X113957Y238193D02*Y237407D01*
X121043Y228193D02*Y227407D01*
X113957Y228193D02*Y227407D01*
X181543Y63693D02*Y62907D01*
X174457Y63693D02*Y62907D01*
Y83693D02*Y82907D01*
X181543Y83693D02*Y82907D01*
X174457Y73693D02*Y72907D01*
X181543Y73693D02*Y72907D01*
X192107Y66757D02*X192893D01*
X192107Y73843D02*X192893D01*
G54D104*X181953Y53828D02*Y52056D01*
X179984Y53828D02*Y52056D01*
X178016Y53828D02*Y52056D01*
X176047Y53828D02*Y52056D01*
Y46544D02*Y44772D01*
X178016Y46544D02*Y44772D01*
X179984Y46544D02*Y44772D01*
X181953Y46544D02*Y44772D01*
G54D105*X176047Y49300D02*X181953D01*
G54D96*X192107Y45757D02*X192893D01*
X192107Y52843D02*X192893D01*
G54D106*X194200Y36000D02*Y14600D01*
X188600Y36000D02*X194200D01*
X188600Y14600D02*X194200D01*
X172800Y36000D02*Y14600D01*
Y36000D02*X178400D01*
X172800Y14600D02*X178400D01*
G54D107*G36*
X189577Y36971D02*X195171Y31377D01*
X193050Y29256D01*
X187456Y34850D01*
X189577Y36971D01*
G37*
G36*
X187456Y15750D02*X193050Y21344D01*
X195171Y19223D01*
X189577Y13629D01*
X187456Y15750D01*
G37*
G36*
X171829Y31377D02*X177423Y36971D01*
X179544Y34850D01*
X173950Y29256D01*
X171829Y31377D01*
G37*
G36*
X173950Y21344D02*X179544Y15750D01*
X177423Y13629D01*
X171829Y19223D01*
X173950Y21344D01*
G37*
G36*
X191250Y36650D02*Y33050D01*
X194850D01*
Y36650D01*
X191250D01*
G37*
G36*
Y17550D02*Y13950D01*
X194850D01*
Y17550D01*
X191250D01*
G37*
G36*
X172150Y36650D02*Y33050D01*
X175750D01*
Y36650D01*
X172150D01*
G37*
G36*
Y17550D02*Y13950D01*
X175750D01*
Y17550D01*
X172150D01*
G37*
G54D108*X83445Y268233D02*X88957D01*
X83445Y252485D02*X88957D01*
X83445Y236737D02*X88957D01*
X83445Y220989D02*X88957D01*
X83445Y205241D02*X88957D01*
X94429Y197367D02*X99941D01*
X94429Y213115D02*X99941D01*
X94429Y228863D02*X99941D01*
X94429Y244611D02*X99941D01*
X94429Y260359D02*X99941D01*
X170059Y268233D02*X175571D01*
X170059Y252485D02*X175571D01*
X170059Y236737D02*X175571D01*
X170059Y220989D02*X175571D01*
X170059Y205241D02*X175571D01*
X181043Y197367D02*X186555D01*
X181043Y213115D02*X186555D01*
X181043Y228863D02*X186555D01*
X181043Y244611D02*X186555D01*
X181043Y260359D02*X186555D01*
G54D96*X31457Y291193D02*Y290407D01*
X38543Y291193D02*Y290407D01*
X31457Y281193D02*Y280407D01*
X38543Y281193D02*Y280407D01*
X23957Y242693D02*Y241907D01*
X31043Y242693D02*Y241907D01*
X23957Y231693D02*Y230907D01*
X31043Y231693D02*Y230907D01*
M02*
