G04 start of page 2 for group 0 idx 0 *
G04 Title: (unknown), top *
G04 Creator: pcb 20110918 *
G04 CreationDate: Thu 09 Jul 2015 02:06:34 AM GMT UTC *
G04 For: petersen *
G04 Format: Gerber/RS-274X *
G04 PCB-Dimensions: 269500 307800 *
G04 PCB-Coordinate-Origin: lower left *
%MOIN*%
%FSLAX25Y25*%
%LNTOP*%
%ADD42C,0.0750*%
%ADD41C,0.0480*%
%ADD40C,0.0430*%
%ADD39C,0.0630*%
%ADD38C,0.0380*%
%ADD37C,0.1285*%
%ADD36C,0.0360*%
%ADD35R,0.0430X0.0430*%
%ADD34R,0.0350X0.0350*%
%ADD33R,0.0240X0.0240*%
%ADD32R,0.0197X0.0197*%
%ADD31R,0.0098X0.0098*%
%ADD30R,0.0700X0.0700*%
%ADD29R,0.0240X0.0240*%
%ADD28R,0.0230X0.0230*%
%ADD27R,0.0340X0.0340*%
%ADD26R,0.0157X0.0157*%
%ADD25R,0.0512X0.0512*%
%ADD24R,0.0787X0.0787*%
%ADD23R,0.0440X0.0440*%
%ADD22C,0.1050*%
%ADD21C,0.0800*%
%ADD20C,0.0860*%
%ADD19C,0.2937*%
%ADD18C,0.0350*%
%ADD17C,0.0250*%
%ADD16C,0.0600*%
%ADD15C,0.0200*%
%ADD14C,0.0500*%
%ADD13C,0.0150*%
%ADD12C,0.0100*%
%ADD11C,0.0001*%
G54D11*G36*
X179000Y76300D02*X184500D01*
Y60300D01*
X179000D01*
Y76300D01*
G37*
G36*
X180500Y87300D02*Y193300D01*
X190500D01*
Y188560D01*
X190132Y188471D01*
X189725Y188303D01*
X189349Y188072D01*
X189014Y187786D01*
X188728Y187451D01*
X188497Y187075D01*
X188329Y186668D01*
X188226Y186239D01*
X188191Y185800D01*
X188226Y185361D01*
X188329Y184932D01*
X188497Y184525D01*
X188728Y184149D01*
X189014Y183814D01*
X189323Y183550D01*
X189014Y183286D01*
X188728Y182951D01*
X188497Y182575D01*
X188329Y182168D01*
X188226Y181739D01*
X188191Y181300D01*
X188226Y180861D01*
X188329Y180432D01*
X188497Y180025D01*
X188728Y179649D01*
X189014Y179314D01*
X189349Y179028D01*
X189725Y178797D01*
X190132Y178629D01*
X190500Y178540D01*
Y175060D01*
X190132Y174971D01*
X189725Y174803D01*
X189349Y174572D01*
X189014Y174286D01*
X188728Y173951D01*
X188497Y173575D01*
X188329Y173168D01*
X188226Y172739D01*
X188191Y172300D01*
X188226Y171861D01*
X188329Y171432D01*
X188497Y171025D01*
X188728Y170649D01*
X189014Y170314D01*
X189349Y170028D01*
X189725Y169797D01*
X190132Y169629D01*
X190500Y169540D01*
Y87300D01*
X180500D01*
G37*
G36*
X188000Y172300D02*X180300D01*
X180274Y172739D01*
X180171Y173168D01*
X180003Y173575D01*
X179772Y173951D01*
X179486Y174286D01*
X179177Y174550D01*
X179486Y174814D01*
X179772Y175149D01*
X180003Y175525D01*
X180171Y175932D01*
X180274Y176361D01*
X180300Y176800D01*
X180274Y177239D01*
X180171Y177668D01*
X180003Y178075D01*
X179772Y178451D01*
X179486Y178786D01*
X179151Y179072D01*
X178775Y179303D01*
X178368Y179471D01*
X177939Y179574D01*
X177500Y179609D01*
X177061Y179574D01*
X176632Y179471D01*
X176225Y179303D01*
X175849Y179072D01*
X175514Y178786D01*
X175228Y178451D01*
X174997Y178075D01*
X174829Y177668D01*
X174726Y177239D01*
X174691Y176800D01*
X174726Y176361D01*
X174767Y176189D01*
X174379Y175800D01*
X173470D01*
X173486Y175814D01*
X173772Y176149D01*
X174003Y176525D01*
X174171Y176932D01*
X174274Y177361D01*
X174300Y177800D01*
X174274Y178239D01*
X174171Y178668D01*
X174003Y179075D01*
X173772Y179451D01*
X173486Y179786D01*
X173151Y180072D01*
X172775Y180303D01*
X172368Y180471D01*
X171939Y180574D01*
X171500Y180609D01*
X171061Y180574D01*
X170632Y180471D01*
X170225Y180303D01*
X169849Y180072D01*
X169514Y179786D01*
X169228Y179451D01*
X169135Y179300D01*
X168059D01*
X168000Y179305D01*
X167765Y179286D01*
X167756Y179284D01*
X167774Y179361D01*
X167800Y179800D01*
X167774Y180239D01*
X167671Y180668D01*
X167503Y181075D01*
X167272Y181451D01*
X166986Y181786D01*
X166651Y182072D01*
X166275Y182303D01*
X165868Y182471D01*
X165439Y182574D01*
X165000Y182609D01*
X164561Y182574D01*
X164132Y182471D01*
X163725Y182303D01*
X163349Y182072D01*
X163014Y181786D01*
X162728Y181451D01*
X162635Y181300D01*
X160559D01*
X160500Y181305D01*
X160265Y181286D01*
X160256Y181284D01*
X160274Y181361D01*
X160300Y181800D01*
X160274Y182239D01*
X160171Y182668D01*
X160003Y183075D01*
X159772Y183451D01*
X159486Y183786D01*
X159151Y184072D01*
X158775Y184303D01*
X158368Y184471D01*
X157939Y184574D01*
X157500Y184609D01*
X157061Y184574D01*
X156632Y184471D01*
X156225Y184303D01*
X155849Y184072D01*
X155514Y183786D01*
X155228Y183451D01*
X155135Y183300D01*
X152559D01*
X152500Y183305D01*
X152265Y183286D01*
X152256Y183284D01*
X152274Y183361D01*
X152300Y183800D01*
X152274Y184239D01*
X152171Y184668D01*
X152003Y185075D01*
X151772Y185451D01*
X151486Y185786D01*
X151151Y186072D01*
X150775Y186303D01*
X150368Y186471D01*
X149939Y186574D01*
X149500Y186609D01*
X149061Y186574D01*
X148632Y186471D01*
X148225Y186303D01*
X147849Y186072D01*
X147514Y185786D01*
X147228Y185451D01*
X147135Y185300D01*
X145059D01*
X145000Y185305D01*
X144765Y185286D01*
X144756Y185284D01*
X144774Y185361D01*
X144800Y185800D01*
X144774Y186239D01*
X144671Y186668D01*
X144503Y187075D01*
X144272Y187451D01*
X143986Y187786D01*
X143651Y188072D01*
X143275Y188303D01*
X142868Y188471D01*
X142439Y188574D01*
X142000Y188609D01*
X141561Y188574D01*
X141132Y188471D01*
X140725Y188303D01*
X140349Y188072D01*
X140014Y187786D01*
X139728Y187451D01*
X139635Y187300D01*
X139059D01*
X139000Y187305D01*
X138765Y187286D01*
X138535Y187231D01*
X138317Y187141D01*
X138205Y187072D01*
X138274Y187361D01*
X138300Y187800D01*
X138274Y188239D01*
X138171Y188668D01*
X138003Y189075D01*
X137772Y189451D01*
X137486Y189786D01*
X137151Y190072D01*
X136775Y190303D01*
X136368Y190471D01*
X135939Y190574D01*
X135500Y190609D01*
X135061Y190574D01*
X134632Y190471D01*
X134225Y190303D01*
X134081Y190214D01*
X134171Y190432D01*
X134274Y190861D01*
X134300Y191300D01*
X134274Y191739D01*
X134171Y192168D01*
X134003Y192575D01*
X133772Y192951D01*
X133486Y193286D01*
X133151Y193572D01*
X132775Y193803D01*
X132368Y193971D01*
X131939Y194074D01*
X131500Y194109D01*
X131061Y194074D01*
X130632Y193971D01*
X130225Y193803D01*
X129849Y193572D01*
X129514Y193286D01*
X129228Y192951D01*
X129135Y192800D01*
X118500D01*
Y270300D01*
X163500D01*
Y207211D01*
X163228Y206892D01*
X162997Y206516D01*
X162829Y206109D01*
X162726Y205680D01*
X162691Y205241D01*
X162726Y204802D01*
X162829Y204373D01*
X162997Y203966D01*
X163228Y203590D01*
X163500Y203271D01*
Y202300D01*
X172500Y193300D01*
X188000D01*
Y172300D01*
G37*
G36*
X28500Y237800D02*X40000D01*
Y218800D01*
X32121D01*
X28500Y222421D01*
Y237800D01*
G37*
G36*
X117500Y92800D02*X121500D01*
Y73800D01*
X117500D01*
X110500Y80800D01*
Y85800D01*
X117500Y92800D01*
G37*
G36*
X116500Y205800D02*X115799D01*
X115578Y205989D01*
X115209Y206215D01*
X114809Y206380D01*
X114389Y206482D01*
X113957Y206515D01*
X113525Y206482D01*
X113105Y206380D01*
X112705Y206215D01*
X112336Y205989D01*
X112123Y205800D01*
X108500D01*
Y240800D01*
X116500D01*
Y205800D01*
G37*
G36*
X63000Y157300D02*X53396D01*
X52000Y158696D01*
Y166800D01*
X63000D01*
Y157300D01*
G37*
G36*
X66500D02*Y166800D01*
X77500D01*
Y157300D01*
X66500D01*
G37*
G36*
X173000Y55800D02*Y42800D01*
X168000D01*
Y55800D01*
X173000D01*
G37*
G36*
X56500Y83300D02*Y94300D01*
X67500D01*
Y83300D01*
X56500D01*
G37*
G36*
X69000Y137800D02*Y113300D01*
X64375D01*
X64349Y113739D01*
X64246Y114168D01*
X64078Y114575D01*
X63847Y114951D01*
X63561Y115286D01*
X63226Y115572D01*
X62850Y115803D01*
X62443Y115971D01*
X62014Y116074D01*
X61575Y116109D01*
X61136Y116074D01*
X60707Y115971D01*
X60300Y115803D01*
X59924Y115572D01*
X59589Y115286D01*
X59303Y114951D01*
X59072Y114575D01*
X58904Y114168D01*
X58801Y113739D01*
X58783Y113514D01*
X58700Y113534D01*
X58425Y113555D01*
X58150Y113534D01*
X58063Y113513D01*
X58050Y113739D01*
X57947Y114168D01*
X57779Y114575D01*
X57548Y114951D01*
X57262Y115286D01*
X56927Y115572D01*
X56551Y115803D01*
X56144Y115971D01*
X55715Y116074D01*
X55276Y116109D01*
X54837Y116074D01*
X54408Y115971D01*
X54001Y115803D01*
X53625Y115572D01*
X53290Y115286D01*
X53004Y114951D01*
X52773Y114575D01*
X52605Y114168D01*
X52502Y113739D01*
X52467Y113300D01*
X51500D01*
Y137800D01*
X56675D01*
Y137488D01*
X56439Y137286D01*
X56153Y136951D01*
X55922Y136575D01*
X55754Y136168D01*
X55651Y135739D01*
X55616Y135300D01*
X55651Y134861D01*
X55754Y134432D01*
X55922Y134025D01*
X56153Y133649D01*
X56439Y133314D01*
X56774Y133028D01*
X57150Y132797D01*
X57557Y132629D01*
X57986Y132526D01*
X58425Y132491D01*
X58864Y132526D01*
X59293Y132629D01*
X59700Y132797D01*
X60076Y133028D01*
X60411Y133314D01*
X60697Y133649D01*
X60928Y134025D01*
X61096Y134432D01*
X61199Y134861D01*
X61225Y135300D01*
X61199Y135739D01*
X61096Y136168D01*
X60928Y136575D01*
X60697Y136951D01*
X60411Y137286D01*
X60175Y137488D01*
Y137800D01*
X69000D01*
G37*
G36*
X85500Y106300D02*X91000D01*
Y87800D01*
X85500D01*
Y106300D01*
G37*
G36*
Y87800D02*Y92800D01*
X109000D01*
Y87800D01*
X85500D01*
G37*
G36*
X91000D02*X84000D01*
Y99300D01*
X91000D01*
Y87800D01*
G37*
G36*
X84000Y97800D02*Y99800D01*
X87543Y103343D01*
Y97800D01*
X84000D01*
G37*
G36*
X195500Y69300D02*Y50300D01*
X187000D01*
Y51741D01*
X187005Y51800D01*
X187000Y51859D01*
Y69300D01*
X195500D01*
G37*
G36*
Y76300D02*Y71300D01*
X179000D01*
Y76300D01*
X195500D01*
G37*
G36*
X224493Y86300D02*X227000D01*
Y77300D01*
X224493D01*
Y79945D01*
X224578Y79981D01*
X224679Y80043D01*
X224769Y80119D01*
X224845Y80209D01*
X224905Y80311D01*
X225122Y80780D01*
X225289Y81269D01*
X225409Y81772D01*
X225482Y82284D01*
X225506Y82800D01*
X225482Y83316D01*
X225409Y83828D01*
X225289Y84331D01*
X225122Y84820D01*
X224910Y85292D01*
X224849Y85393D01*
X224772Y85484D01*
X224682Y85561D01*
X224580Y85623D01*
X224493Y85660D01*
Y86300D01*
G37*
G36*
X215507D02*X217684D01*
X217731Y86289D01*
X217849Y86279D01*
X217968Y86288D01*
X218017Y86300D01*
X222002D01*
X222033Y86293D01*
X222151Y86283D01*
X222268Y86293D01*
X222298Y86300D01*
X224493D01*
Y85660D01*
X224471Y85669D01*
X224355Y85697D01*
X224237Y85706D01*
X224119Y85697D01*
X224003Y85670D01*
X223893Y85624D01*
X223792Y85562D01*
X223702Y85486D01*
X223624Y85395D01*
X223562Y85294D01*
X223516Y85185D01*
X223489Y85069D01*
X223479Y84951D01*
X223488Y84832D01*
X223516Y84717D01*
X223563Y84608D01*
X223721Y84268D01*
X223842Y83912D01*
X223930Y83547D01*
X223982Y83175D01*
X224000Y82800D01*
X223982Y82425D01*
X223930Y82053D01*
X223842Y81688D01*
X223721Y81332D01*
X223567Y80990D01*
X223520Y80882D01*
X223493Y80767D01*
X223483Y80649D01*
X223493Y80532D01*
X223521Y80417D01*
X223566Y80308D01*
X223628Y80207D01*
X223705Y80118D01*
X223795Y80041D01*
X223895Y79980D01*
X224004Y79935D01*
X224119Y79907D01*
X224237Y79898D01*
X224355Y79908D01*
X224469Y79935D01*
X224493Y79945D01*
Y77300D01*
X220129D01*
X220516Y77318D01*
X221028Y77391D01*
X221531Y77511D01*
X222020Y77678D01*
X222492Y77890D01*
X222593Y77951D01*
X222684Y78028D01*
X222761Y78118D01*
X222823Y78220D01*
X222869Y78329D01*
X222897Y78445D01*
X222906Y78563D01*
X222897Y78681D01*
X222870Y78797D01*
X222824Y78907D01*
X222762Y79008D01*
X222686Y79098D01*
X222595Y79176D01*
X222494Y79238D01*
X222385Y79284D01*
X222269Y79311D01*
X222151Y79321D01*
X222032Y79312D01*
X221917Y79284D01*
X221808Y79237D01*
X221468Y79079D01*
X221112Y78958D01*
X220747Y78870D01*
X220375Y78818D01*
X220000Y78800D01*
X219625Y78818D01*
X219253Y78870D01*
X218888Y78958D01*
X218532Y79079D01*
X218190Y79233D01*
X218082Y79280D01*
X217967Y79307D01*
X217849Y79317D01*
X217732Y79307D01*
X217617Y79279D01*
X217508Y79234D01*
X217407Y79172D01*
X217318Y79095D01*
X217241Y79005D01*
X217180Y78905D01*
X217135Y78796D01*
X217107Y78681D01*
X217098Y78563D01*
X217108Y78445D01*
X217135Y78331D01*
X217181Y78222D01*
X217243Y78121D01*
X217319Y78031D01*
X217409Y77955D01*
X217511Y77895D01*
X217980Y77678D01*
X218469Y77511D01*
X218972Y77391D01*
X219484Y77318D01*
X219871Y77300D01*
X215507D01*
Y79940D01*
X215529Y79931D01*
X215645Y79903D01*
X215763Y79894D01*
X215881Y79903D01*
X215997Y79930D01*
X216107Y79976D01*
X216208Y80038D01*
X216298Y80114D01*
X216376Y80205D01*
X216438Y80306D01*
X216484Y80415D01*
X216511Y80531D01*
X216521Y80649D01*
X216512Y80768D01*
X216484Y80883D01*
X216437Y80992D01*
X216279Y81332D01*
X216158Y81688D01*
X216070Y82053D01*
X216018Y82425D01*
X216000Y82800D01*
X216018Y83175D01*
X216070Y83547D01*
X216158Y83912D01*
X216279Y84268D01*
X216433Y84610D01*
X216480Y84718D01*
X216507Y84833D01*
X216517Y84951D01*
X216507Y85068D01*
X216479Y85183D01*
X216434Y85292D01*
X216372Y85393D01*
X216295Y85482D01*
X216205Y85559D01*
X216105Y85620D01*
X215996Y85665D01*
X215881Y85693D01*
X215763Y85702D01*
X215645Y85692D01*
X215531Y85665D01*
X215507Y85655D01*
Y86300D01*
G37*
G36*
X179000D02*X215507D01*
Y85655D01*
X215422Y85619D01*
X215321Y85557D01*
X215231Y85481D01*
X215155Y85391D01*
X215095Y85289D01*
X214878Y84820D01*
X214711Y84331D01*
X214591Y83828D01*
X214518Y83316D01*
X214494Y82800D01*
X214518Y82284D01*
X214591Y81772D01*
X214711Y81269D01*
X214878Y80780D01*
X215090Y80308D01*
X215151Y80207D01*
X215228Y80116D01*
X215318Y80039D01*
X215420Y79977D01*
X215507Y79940D01*
Y77300D01*
X179000D01*
Y86300D01*
G37*
G36*
X227000Y75800D02*X224493D01*
Y79945D01*
X224578Y79981D01*
X224679Y80043D01*
X224769Y80119D01*
X224845Y80209D01*
X224905Y80311D01*
X225122Y80780D01*
X225289Y81269D01*
X225409Y81772D01*
X225482Y82284D01*
X225506Y82800D01*
X225482Y83316D01*
X225409Y83828D01*
X225289Y84331D01*
X225122Y84820D01*
X224910Y85292D01*
X224849Y85393D01*
X224772Y85484D01*
X224682Y85561D01*
X224580Y85623D01*
X224493Y85660D01*
Y89800D01*
X225672D01*
X227000Y88472D01*
Y75800D01*
G37*
G36*
X224493D02*X220002D01*
Y77294D01*
X220516Y77318D01*
X221028Y77391D01*
X221531Y77511D01*
X222020Y77678D01*
X222492Y77890D01*
X222593Y77951D01*
X222684Y78028D01*
X222761Y78118D01*
X222823Y78220D01*
X222869Y78329D01*
X222897Y78445D01*
X222906Y78563D01*
X222897Y78681D01*
X222870Y78797D01*
X222824Y78907D01*
X222762Y79008D01*
X222686Y79098D01*
X222595Y79176D01*
X222494Y79238D01*
X222385Y79284D01*
X222269Y79311D01*
X222151Y79321D01*
X222032Y79312D01*
X221917Y79284D01*
X221808Y79237D01*
X221468Y79079D01*
X221112Y78958D01*
X220747Y78870D01*
X220375Y78818D01*
X220002Y78800D01*
Y86800D01*
X220375Y86782D01*
X220747Y86730D01*
X221112Y86642D01*
X221468Y86521D01*
X221810Y86367D01*
X221918Y86320D01*
X222033Y86293D01*
X222151Y86283D01*
X222268Y86293D01*
X222383Y86321D01*
X222492Y86366D01*
X222593Y86428D01*
X222682Y86505D01*
X222759Y86595D01*
X222820Y86695D01*
X222865Y86804D01*
X222893Y86919D01*
X222902Y87037D01*
X222892Y87155D01*
X222865Y87269D01*
X222819Y87378D01*
X222757Y87479D01*
X222681Y87569D01*
X222591Y87645D01*
X222489Y87705D01*
X222020Y87922D01*
X221531Y88089D01*
X221028Y88209D01*
X220516Y88282D01*
X220002Y88306D01*
Y89800D01*
X224493D01*
Y85660D01*
X224471Y85669D01*
X224355Y85697D01*
X224237Y85706D01*
X224119Y85697D01*
X224003Y85670D01*
X223893Y85624D01*
X223792Y85562D01*
X223702Y85486D01*
X223624Y85395D01*
X223562Y85294D01*
X223516Y85185D01*
X223489Y85069D01*
X223479Y84951D01*
X223488Y84832D01*
X223516Y84717D01*
X223563Y84608D01*
X223721Y84268D01*
X223842Y83912D01*
X223930Y83547D01*
X223982Y83175D01*
X224000Y82800D01*
X223982Y82425D01*
X223930Y82053D01*
X223842Y81688D01*
X223721Y81332D01*
X223567Y80990D01*
X223520Y80882D01*
X223493Y80767D01*
X223483Y80649D01*
X223493Y80532D01*
X223521Y80417D01*
X223566Y80308D01*
X223628Y80207D01*
X223705Y80118D01*
X223795Y80041D01*
X223895Y79980D01*
X224004Y79935D01*
X224119Y79907D01*
X224237Y79898D01*
X224355Y79908D01*
X224469Y79935D01*
X224493Y79945D01*
Y75800D01*
G37*
G36*
X220002D02*X215507D01*
Y79940D01*
X215529Y79931D01*
X215645Y79903D01*
X215763Y79894D01*
X215881Y79903D01*
X215997Y79930D01*
X216107Y79976D01*
X216208Y80038D01*
X216298Y80114D01*
X216376Y80205D01*
X216438Y80306D01*
X216484Y80415D01*
X216511Y80531D01*
X216521Y80649D01*
X216512Y80768D01*
X216484Y80883D01*
X216437Y80992D01*
X216279Y81332D01*
X216158Y81688D01*
X216070Y82053D01*
X216018Y82425D01*
X216000Y82800D01*
X216018Y83175D01*
X216070Y83547D01*
X216158Y83912D01*
X216279Y84268D01*
X216433Y84610D01*
X216480Y84718D01*
X216507Y84833D01*
X216517Y84951D01*
X216507Y85068D01*
X216479Y85183D01*
X216434Y85292D01*
X216372Y85393D01*
X216295Y85482D01*
X216205Y85559D01*
X216105Y85620D01*
X215996Y85665D01*
X215881Y85693D01*
X215763Y85702D01*
X215645Y85692D01*
X215531Y85665D01*
X215507Y85655D01*
Y89800D01*
X220002D01*
Y88306D01*
X220000Y88306D01*
X219484Y88282D01*
X218972Y88209D01*
X218469Y88089D01*
X217980Y87922D01*
X217508Y87710D01*
X217407Y87649D01*
X217316Y87572D01*
X217239Y87482D01*
X217177Y87380D01*
X217131Y87271D01*
X217103Y87155D01*
X217094Y87037D01*
X217103Y86919D01*
X217130Y86803D01*
X217176Y86693D01*
X217238Y86592D01*
X217314Y86502D01*
X217405Y86424D01*
X217506Y86362D01*
X217615Y86316D01*
X217731Y86289D01*
X217849Y86279D01*
X217968Y86288D01*
X218083Y86316D01*
X218192Y86363D01*
X218532Y86521D01*
X218888Y86642D01*
X219253Y86730D01*
X219625Y86782D01*
X220000Y86800D01*
X220002Y86800D01*
Y78800D01*
X220000Y78800D01*
X219625Y78818D01*
X219253Y78870D01*
X218888Y78958D01*
X218532Y79079D01*
X218190Y79233D01*
X218082Y79280D01*
X217967Y79307D01*
X217849Y79317D01*
X217732Y79307D01*
X217617Y79279D01*
X217508Y79234D01*
X217407Y79172D01*
X217318Y79095D01*
X217241Y79005D01*
X217180Y78905D01*
X217135Y78796D01*
X217107Y78681D01*
X217098Y78563D01*
X217108Y78445D01*
X217135Y78331D01*
X217181Y78222D01*
X217243Y78121D01*
X217319Y78031D01*
X217409Y77955D01*
X217511Y77895D01*
X217980Y77678D01*
X218469Y77511D01*
X218972Y77391D01*
X219484Y77318D01*
X220000Y77294D01*
X220002Y77294D01*
Y75800D01*
G37*
G36*
X215507D02*X210000D01*
Y89800D01*
X215507D01*
Y85655D01*
X215422Y85619D01*
X215321Y85557D01*
X215231Y85481D01*
X215155Y85391D01*
X215095Y85289D01*
X214878Y84820D01*
X214711Y84331D01*
X214591Y83828D01*
X214518Y83316D01*
X214494Y82800D01*
X214518Y82284D01*
X214591Y81772D01*
X214711Y81269D01*
X214878Y80780D01*
X215090Y80308D01*
X215151Y80207D01*
X215228Y80116D01*
X215318Y80039D01*
X215420Y79977D01*
X215507Y79940D01*
Y75800D01*
G37*
G36*
X171500Y92800D02*X190500D01*
Y87300D01*
X171500D01*
Y92800D01*
G37*
G36*
X186500Y34800D02*X181000D01*
Y42800D01*
X186500D01*
Y34800D01*
G37*
G36*
X195500Y48300D02*Y34800D01*
X185000D01*
Y48300D01*
X195500D01*
G37*
G36*
X176000Y42800D02*X179000Y39800D01*
Y35800D01*
X172500D01*
Y39300D01*
X176000Y42800D01*
G37*
G36*
X214000Y32300D02*X191000D01*
Y38300D01*
X214000D01*
Y32300D01*
G37*
G36*
X177000Y56800D02*X117500D01*
Y92800D01*
X177000D01*
Y56800D01*
G37*
G54D12*X71024Y105521D02*Y98800D01*
X67874Y98674D02*Y105521D01*
G54D13*X64725D02*Y111800D01*
G54D12*X71024Y98800D02*X73500Y96300D01*
X65500D02*X67874Y98674D01*
X73500Y96300D02*Y91300D01*
G54D14*X80500Y86300D02*Y103300D01*
G54D12*X78779Y113277D02*X75523D01*
X30500Y79300D02*Y70300D01*
X33500Y67300D01*
X57500D01*
X41500Y93800D02*X28500Y80800D01*
Y69300D01*
X52126Y100926D02*X30500Y79300D01*
X28500Y69300D02*X32500Y65300D01*
X55000D01*
X31500Y63300D02*X51000D01*
X39500Y95300D02*X26500Y82300D01*
Y68300D01*
X31500Y63300D01*
X58425Y111800D02*Y117800D01*
X48976Y111276D02*X41500Y103800D01*
Y93800D01*
X46000Y111800D02*X39500Y105300D01*
Y95300D01*
X48000Y100800D02*X45500D01*
X48977Y105521D02*Y101777D01*
X48000Y100800D01*
X41221Y113276D02*X36524D01*
X35500Y114300D01*
X32500D01*
X27000Y119800D02*X24000D01*
X50500Y92343D02*Y95257D01*
X51500Y96300D01*
X65500D01*
G54D13*X55276Y105521D02*Y113300D01*
X61575Y105521D02*Y113300D01*
X58425Y105521D02*Y111800D01*
G54D12*X52126Y105521D02*Y100926D01*
X125157Y35143D02*X144843D01*
G54D15*X110050Y11850D02*X113657Y15457D01*
X144843D01*
X53000Y11850D02*X110050D01*
G54D12*X93000Y52800D02*Y45750D01*
X58000Y39300D02*X62157Y35143D01*
X125000D01*
G54D15*X50500Y91300D02*Y74800D01*
X73500Y91300D02*Y74800D01*
G54D14*X84500Y83300D02*X83500D01*
X80500Y86300D01*
G54D12*X83000Y53800D02*Y45750D01*
X73000Y53800D02*Y45750D01*
X57500Y67300D02*X63000Y61800D01*
Y45750D01*
X53000Y61300D02*Y45750D01*
X55000Y65300D02*X58000Y62300D01*
X51000Y63300D02*X53000Y61300D01*
X58000Y62300D02*Y39300D01*
G54D16*X220000Y62800D02*Y39243D01*
G54D17*X211343Y43143D02*Y78800D01*
G54D15*X220000Y62800D02*X229000Y71800D01*
Y89300D01*
Y51800D02*X234500Y57300D01*
X211343Y35343D02*Y18300D01*
X225000Y9300D02*X229000Y13300D01*
Y51800D01*
G54D12*X218043Y18300D02*X223500D01*
X226000Y20800D01*
Y56800D01*
X230500Y61300D01*
G54D15*X234500Y57300D02*Y90000D01*
G54D14*X84500Y83300D02*X174500D01*
G54D15*X170500Y49300D02*X179000D01*
G54D12*X176047Y58300D02*Y52942D01*
X179984Y63300D02*Y52942D01*
X181953D02*X184358D01*
X178016Y49300D02*Y45658D01*
X172500Y39300D02*Y33300D01*
X176047Y42847D02*X172500Y39300D01*
X179000Y39894D02*Y35800D01*
X176047Y42847D02*X179000Y39894D01*
X176047Y45658D02*Y34850D01*
X185500Y51800D02*Y45800D01*
X184358Y52942D02*X185500Y51800D01*
X181953Y45658D02*Y36300D01*
X179984Y49300D02*Y45658D01*
G54D15*X225000Y9300D02*X170686D01*
X144843Y35143D01*
G54D17*X219500Y114300D02*Y96300D01*
G54D15*X223400Y109300D02*Y113700D01*
X224000Y114300D01*
X215600Y109300D02*Y113700D01*
X215000Y114300D01*
X215600Y101100D02*Y94200D01*
X217500Y92300D01*
X226000D01*
X229000Y89300D01*
X234500Y90000D02*X223400Y101100D01*
G54D12*X83500Y172300D02*X177500D01*
X71500Y174300D02*X175000D01*
X57500Y176300D02*X166500D01*
X56500Y178300D02*X159000D01*
X55500Y180300D02*X151000D01*
X54500Y182300D02*X143500D01*
X53500Y184300D02*X137500D01*
X175000Y174300D02*X177500Y176800D01*
X166500Y176300D02*X168000Y177800D01*
X159000Y178300D02*X160500Y179800D01*
X165000D01*
X168000Y177800D02*X171500D01*
X172815Y205241D02*X165500D01*
X151000Y180300D02*X152500Y181800D01*
X157500D01*
X143500Y182300D02*X145000Y183800D01*
X149500D01*
X139000Y185800D02*X142000D01*
X172815Y236737D02*X188063D01*
X190500Y234300D01*
X137500Y184300D02*X139000Y185800D01*
G54D18*X97185Y197367D02*X107567D01*
X113957Y203757D01*
G54D12*X92500Y201300D02*X97000D01*
X105000Y209300D01*
X87000Y195300D02*X89000Y193300D01*
X90000Y198800D02*X92500Y201300D01*
X89000Y193300D02*X93000D01*
X95000Y191300D01*
X131500D01*
X88500Y188300D02*X90000Y189800D01*
X93000Y187800D02*X91500Y186300D01*
X135500Y187800D02*X93000D01*
G54D13*X61575Y143079D02*Y152757D01*
X58425Y143079D02*Y135300D01*
G54D12*X55275Y143079D02*Y153300D01*
X52126Y143079D02*Y152800D01*
X48976Y143079D02*Y111276D01*
X64724Y143079D02*Y167524D01*
X71500Y174300D01*
X71023Y143079D02*X73279D01*
X69500Y152757D02*X76457D01*
X55275Y153300D02*X50500Y158075D01*
X52126Y152800D02*X48500Y156426D01*
X76457Y152757D02*X79000Y155300D01*
X84000Y149800D02*X90000D01*
X73279Y143079D02*X84500Y154300D01*
X90000D01*
X79000Y155300D02*Y167800D01*
X83500Y172300D01*
X86201Y205241D02*X94000D01*
X50500Y190300D02*X79000D01*
X45000Y192300D02*X76500D01*
X51500Y188300D02*X88500D01*
X91500Y186300D02*X52500D01*
X50500Y169300D02*X57500Y176300D01*
X48500Y170300D02*X56500Y178300D01*
X41221Y166021D02*X55500Y180300D01*
X36000Y163800D02*X54500Y182300D01*
X34000Y164800D02*X53500Y184300D01*
X30000Y166800D02*X51500Y188300D01*
X52500Y186300D02*X32000Y165800D01*
X28000Y167800D02*X50500Y190300D01*
X38500Y185800D02*X45000Y192300D01*
G54D14*X34543Y224257D02*X51000Y207800D01*
G54D12*X40000Y191800D02*Y208800D01*
X41221Y125875D02*X43925D01*
X46000Y123800D01*
Y111800D01*
X41221Y132174D02*X37126D01*
X36000Y133300D01*
X41221Y129024D02*X36776D01*
X34000Y131800D01*
X41221Y122725D02*X35000D01*
X41221Y119575D02*X33225D01*
X41221Y116426D02*X33374D01*
X33225Y119575D02*X28500Y124300D01*
Y130300D01*
X26500Y123300D02*Y131300D01*
X28000Y132800D01*
X33374Y116426D02*X26500Y123300D01*
X32500Y114300D02*X27000Y119800D01*
G54D18*X80957Y103300D02*X65500Y118757D01*
G54D12*X64725Y111800D02*Y116300D01*
X75523Y113277D02*X71000Y117800D01*
X78779Y116426D02*X75374D01*
X73000Y118800D01*
X78779Y129025D02*X86000D01*
X78779Y125875D02*X89500D01*
X78779Y122725D02*X93000D01*
X78779Y119576D02*X84000D01*
X78779Y132174D02*X85874D01*
X90000Y136300D01*
X78779Y135324D02*X84524D01*
X90000Y140800D01*
X73000Y135300D02*X83000Y145300D01*
X90000D01*
G54D13*X67874Y152757D02*Y120800D01*
G54D12*X73000Y118800D02*Y135300D01*
X71000Y117800D02*Y136800D01*
X84000Y149800D01*
X50500Y158075D02*Y169300D01*
X48500Y156426D02*Y170300D01*
X41221Y135323D02*Y166021D01*
X36000Y133300D02*Y163800D01*
X34000Y131800D02*Y164800D01*
X32000Y165800D02*Y127800D01*
X28500Y130300D02*X30000Y131800D01*
Y166800D01*
X28000Y132800D02*Y167800D01*
X191000Y172300D02*X236500D01*
X191000Y181300D02*X198000Y174300D01*
X191000Y185800D02*X200500Y176300D01*
X198000Y174300D02*X237500D01*
X200500Y176300D02*X238500D01*
X202000Y179800D02*X238500D01*
X244000Y164800D02*Y147800D01*
X237500Y141300D01*
X218750D01*
X246000Y165800D02*Y139800D01*
X237500Y131300D01*
X218750D01*
X236500Y172300D02*X244000Y164800D01*
X237500Y174300D02*X246000Y165800D01*
X238500Y176300D02*X248000Y166800D01*
X250500Y167800D02*X238500Y179800D01*
X248000Y166800D02*Y131800D01*
X250500Y128800D02*Y167800D01*
X248000Y131800D02*X237500Y121300D01*
X218750D01*
X194000Y189300D02*X223000Y218300D01*
X194000Y198300D02*Y253300D01*
Y193800D02*X206000Y205800D01*
Y239300D01*
X223000Y218300D02*Y266300D01*
X213000Y276300D01*
X206000D01*
X194000Y253300D02*X198500Y257800D01*
X206000D01*
X190500Y201800D02*Y234300D01*
G54D18*X86201Y268233D02*X127500D01*
X113957Y203757D02*Y237800D01*
G54D12*X105000Y209300D02*Y255300D01*
X100500Y259800D01*
X79500Y202300D02*Y248300D01*
X83500Y252300D01*
X72500Y199800D02*Y240300D01*
X69000Y196800D02*Y240300D01*
X72500D02*X77000Y244800D01*
X75000Y246300D02*X69000Y240300D01*
X77000Y244800D02*Y286300D01*
X75000Y276800D02*Y246300D01*
X76500Y192300D02*X79500Y195300D01*
X76000Y196800D02*Y217800D01*
X79000Y190300D02*X80500Y191800D01*
X84000D01*
Y200800D02*X81000D01*
X79500Y202300D01*
Y195300D02*X87000D01*
X62000Y196800D02*X56000Y202800D01*
Y212800D01*
X51000Y217800D01*
X65500Y199800D02*Y203300D01*
X61000Y207800D01*
X44000Y242300D02*X51000Y235300D01*
X61000Y234300D02*X47000Y248300D01*
X26000D01*
X31043Y242300D02*X44000D01*
X51000Y235300D02*Y227800D01*
X61000D02*Y234300D01*
G54D15*X54500Y251800D02*X66950D01*
G54D12*X23957Y224843D02*Y242300D01*
Y246257D02*Y242257D01*
Y224843D02*X40000Y208800D01*
X26000Y248300D02*X23957Y246257D01*
X31457Y280800D02*Y275343D01*
X33500Y273300D01*
X51500D01*
X25500Y267300D02*Y284843D01*
X73000Y275300D02*Y266300D01*
X70500Y263800D01*
X67050D01*
X66950Y263700D01*
X61050D02*X29100D01*
X25500Y267300D01*
X51500Y273300D02*X56500Y278300D01*
X70000D01*
X73000Y275300D01*
X38543Y280800D02*X71000D01*
X75000Y276800D01*
X25500Y284843D02*X31457Y290800D01*
X77000Y286300D02*X72500Y290800D01*
X38543D01*
G54D19*X22600Y200400D03*
X20350Y42900D03*
G54D11*G36*
X58000Y210800D02*Y204800D01*
X64000D01*
Y210800D01*
X58000D01*
G37*
G54D16*X61000Y217800D03*
X51000Y207800D03*
Y217800D03*
X61000Y227800D03*
X51000D03*
G54D19*X246900Y200400D03*
X249150Y42900D03*
G54D20*X125157Y35143D03*
Y15457D03*
X144843Y35143D03*
Y15457D03*
G54D11*G36*
X216000Y66800D02*Y58800D01*
X224000D01*
Y66800D01*
X216000D01*
G37*
G54D21*X220000Y82800D03*
G54D22*X206000Y276300D03*
Y257800D03*
Y239300D03*
G54D23*X93000Y48350D02*Y43150D01*
Y14450D02*Y9250D01*
X83000Y48350D02*Y43150D01*
Y14450D02*Y9250D01*
X73000Y48350D02*Y43150D01*
Y14450D02*Y9250D01*
X63000Y48350D02*Y43150D01*
Y14450D02*Y9250D01*
X53000Y14450D02*Y9250D01*
G54D24*X71843Y74800D02*X87591D01*
G54D23*X53000Y48350D02*Y43150D01*
G54D24*X36409Y74800D02*X52157D01*
G54D25*X50457Y91693D02*Y90907D01*
G54D26*X58425Y107734D02*Y103308D01*
X61575Y107734D02*Y103308D01*
X64725Y107734D02*Y103308D01*
X67874Y107734D02*Y103308D01*
X71024Y107734D02*Y103308D01*
X76566Y113277D02*X80992D01*
G54D25*X80457Y103693D02*Y102907D01*
X87543Y103693D02*Y102907D01*
G54D26*X76566Y116426D02*X80992D01*
X76566Y119576D02*X80992D01*
X76566Y122725D02*X80992D01*
X76566Y125875D02*X80992D01*
X76566Y129025D02*X80992D01*
G54D25*X73543Y91693D02*Y90907D01*
X66457Y91693D02*Y90907D01*
X57543Y91693D02*Y90907D01*
G54D26*X76566Y132174D02*X80992D01*
X76566Y135324D02*X80992D01*
X48977Y107734D02*Y103308D01*
X52126Y107734D02*Y103308D01*
X55276Y107734D02*Y103308D01*
X55275Y145292D02*Y140866D01*
X52126Y145292D02*Y140866D01*
X48976Y145292D02*Y140866D01*
X39008Y135323D02*X43434D01*
X39008Y132174D02*X43434D01*
X39008Y129024D02*X43434D01*
X39008Y125875D02*X43434D01*
X39008Y122725D02*X43434D01*
X39008Y119575D02*X43434D01*
X39008Y116426D02*X43434D01*
X39008Y113276D02*X43434D01*
G54D25*X218043Y18693D02*Y17907D01*
X210957Y18693D02*Y17907D01*
G54D27*X211043Y43143D02*X211643D01*
X211043Y35343D02*X211643D01*
X219243Y39243D02*X219843D01*
G54D28*X194200Y36000D02*Y14600D01*
G54D11*G36*
X189577Y36971D02*X195171Y31377D01*
X193050Y29256D01*
X187456Y34850D01*
X189577Y36971D01*
G37*
G36*
X187456Y15750D02*X193050Y21344D01*
X195171Y19223D01*
X189577Y13629D01*
X187456Y15750D01*
G37*
G36*
X191050Y36850D02*Y32850D01*
X195050D01*
Y36850D01*
X191050D01*
G37*
G36*
Y17750D02*Y13750D01*
X195050D01*
Y17750D01*
X191050D01*
G37*
G54D28*X188600Y14600D02*X194200D01*
X172800Y36000D02*Y14600D01*
Y36000D02*X178400D01*
G54D11*G36*
X171829Y31377D02*X177423Y36971D01*
X179544Y34850D01*
X173950Y29256D01*
X171829Y31377D01*
G37*
G36*
X171950Y36850D02*Y32850D01*
X175950D01*
Y36850D01*
X171950D01*
G37*
G54D28*X172800Y14600D02*X178400D01*
G54D11*G36*
X173950Y21344D02*X179544Y15750D01*
X177423Y13629D01*
X171829Y19223D01*
X173950Y21344D01*
G37*
G36*
X171950Y17750D02*Y13750D01*
X175950D01*
Y17750D01*
X171950D01*
G37*
G54D29*X215600Y101900D02*Y100300D01*
X219500Y101900D02*Y100300D01*
X223400Y101900D02*Y100300D01*
Y110100D02*Y108500D01*
G54D30*X208500Y121300D02*X229000D01*
X208500Y131300D02*X229000D01*
X208500Y141300D02*X229000D01*
G54D29*X219500Y110100D02*Y108500D01*
X215600Y110100D02*Y108500D01*
G54D25*X181543Y63693D02*Y62907D01*
X174457Y63693D02*Y62907D01*
X192107Y66757D02*X192893D01*
X174457Y83693D02*Y82907D01*
X181543Y83693D02*Y82907D01*
X174457Y73693D02*Y72907D01*
X181543Y73693D02*Y72907D01*
X192107Y73843D02*X192893D01*
G54D31*X181953Y53828D02*Y52056D01*
X179984Y53828D02*Y52056D01*
X178016Y53828D02*Y52056D01*
X176047Y53828D02*Y52056D01*
Y46544D02*Y44772D01*
X178016Y46544D02*Y44772D01*
X179984Y46544D02*Y44772D01*
X181953Y46544D02*Y44772D01*
G54D32*X176047Y49300D02*X181953D01*
G54D33*X175870D02*X182130D01*
G54D25*X192107Y45757D02*X192893D01*
X192107Y52843D02*X192893D01*
G54D28*X188600Y36000D02*X194200D01*
G54D34*X170059Y268233D02*X175571D01*
X170059Y252485D02*X175571D01*
X170059Y236737D02*X175571D01*
X170059Y220989D02*X175571D01*
X170059Y205241D02*X175571D01*
X181043Y197367D02*X186555D01*
X181043Y213115D02*X186555D01*
X181043Y228863D02*X186555D01*
X181043Y244611D02*X186555D01*
X181043Y260359D02*X186555D01*
G54D35*X61050Y252700D02*Y251100D01*
X66950Y252700D02*Y251100D01*
X61050Y264500D02*Y262900D01*
X66950Y264500D02*Y262900D01*
G54D25*X121043Y238193D02*Y237407D01*
X113957Y238193D02*Y237407D01*
X121043Y228193D02*Y227407D01*
X113957Y228193D02*Y227407D01*
G54D34*X83445Y268233D02*X88957D01*
X83445Y252485D02*X88957D01*
X94429Y244611D02*X99941D01*
X94429Y260359D02*X99941D01*
X83445Y236737D02*X88957D01*
X83445Y220989D02*X88957D01*
X83445Y205241D02*X88957D01*
X94429Y197367D02*X99941D01*
X94429Y213115D02*X99941D01*
X94429Y228863D02*X99941D01*
G54D25*X69107Y152757D02*X69893D01*
X69107Y159843D02*X69893D01*
X59607Y152757D02*X60393D01*
X59607Y159843D02*X60393D01*
G54D26*X71023Y145292D02*Y140866D01*
X67874Y145292D02*Y140866D01*
X64724Y145292D02*Y140866D01*
X61575Y145292D02*Y140866D01*
X58425Y145292D02*Y140866D01*
G54D25*X31457Y291193D02*Y290407D01*
X38543Y291193D02*Y290407D01*
X31457Y281193D02*Y280407D01*
X38543Y281193D02*Y280407D01*
X23957Y242693D02*Y241907D01*
X31043Y242693D02*Y241907D01*
X23957Y231693D02*Y230907D01*
X31043Y231693D02*Y230907D01*
G54D36*X54500Y159800D03*
X75000D03*
X58425Y135300D03*
X55276Y113300D03*
X61575D03*
X90500Y125875D03*
X90000Y136300D03*
Y140800D03*
Y145300D03*
X84000Y119576D03*
Y191800D03*
Y200800D03*
X90000Y149800D03*
Y154300D03*
X54500Y164300D03*
X75000D03*
X59500Y85800D03*
X64500D03*
X45500Y100800D03*
X87000Y129025D03*
X86000Y93800D03*
Y97800D03*
Y89800D03*
X94000Y122725D03*
X98500Y90300D03*
X102500D03*
X106500D03*
X32000Y127800D03*
X24000Y119800D03*
X35000Y122725D03*
X94000Y205241D03*
X90000Y189800D03*
Y198800D03*
X76000Y196800D03*
X72500Y199800D03*
X69000Y196800D03*
X65500Y199800D03*
X76000Y217800D03*
X112500Y222300D03*
Y217800D03*
Y213300D03*
Y208800D03*
X142000Y268300D03*
X137500D03*
X133000D03*
X128500D03*
X62000Y196800D03*
X38500Y185800D03*
X40000Y191800D03*
X54500Y251800D03*
X36500Y230300D03*
Y234800D03*
X93000Y53800D03*
X83000D03*
X73000D03*
X170500Y45300D03*
Y53300D03*
Y49300D03*
X189500Y59800D03*
X193000Y57800D03*
Y61800D03*
X230500Y61300D03*
X191000Y172300D03*
Y181300D03*
Y185800D03*
X202000Y179800D03*
X219500Y114300D03*
X224000D03*
X237500Y131300D03*
X250500Y128800D03*
X194000Y189300D03*
Y193800D03*
Y198300D03*
X190500Y201800D03*
X219500Y96300D03*
X215000Y114300D03*
X177500Y172300D03*
Y176800D03*
X171500Y177800D03*
X165000Y179800D03*
X165500Y205241D03*
X157500Y181800D03*
X149500Y183800D03*
X142000Y185800D03*
X135500Y187800D03*
X131500Y191300D03*
G54D15*G54D37*G54D38*G54D39*G54D37*G54D40*G54D41*G54D42*M02*
